<svg
  fill="currentColor"
  xmlns="http://www.w3.org/2000/svg"
  xmlns:xlink="http://www.w3.org/1999/xlink"
  version="1.1"
  x="0px"
  y="0px"
  viewBox="0 0 66.137 100"
  enable-background="new 0 0 66.137 100"
  xml:space="preserve"
><g>
    <path
      d="M10.787,22.444c-0.121,0.018-0.237,0.065-0.347,0.171c-3.315,3.151-0.858,9.464,0.712,12.849   c1.559,3.352,5.112,9.124,9.628,7.938c7.656-2.012-8.029-17.927-9.351-20.658C11.283,22.444,11.02,22.375,10.787,22.444z    M21.353,41.551c-0.949,1.836-3.772,0.205-4.772-0.621c-1.668-1.373-2.866-3.293-3.881-5.178   c-1.442-2.676-3.958-8.485-1.935-11.578c1.46,2.527,3.848,4.765,5.59,7.018C17.932,33.244,22.854,38.655,21.353,41.551z"
    />
    <path
      d="M51.566,65.56c-2.979-0.395-5.864,0.592-8.777,1.041c-1.264,0.193-2.414-0.099-3.221,1.037   c-0.559,0.784-0.964,1.945-0.774,2.921c0.26,1.314,1.384,2.278,2.487,2.924c3.49,2.045,10.216,2.786,12.746-1.164   C56.039,69.178,55.495,66.075,51.566,65.56z M46.023,73.743c-2.994-0.241-8.24-2.358-4.977-5.703   c2.899-0.296,12.926-3.454,12.966,0.785C54.059,73.056,49.258,74.005,46.023,73.743z"
    />
    <path
      d="M46.44,29.141c-0.278-0.063-0.497,0.065-0.694,0.23c-0.095,0.08-0.183,0.171-0.271,0.252   c-0.796,0.745-1.693,1.241-2.541,1.917c-1.059,0.84-2.073,1.756-2.957,2.782c-1.281,1.482-2.954,4.079-0.785,5.586   c3.085,2.15,6.776-8.182,7.686-9.844C47.083,29.688,46.856,29.232,46.44,29.141z M43.712,33.77   c-0.822,1.647-1.768,3.823-3.312,4.918c-0.854,0.603-1.041-0.613-0.869-1.212c0.311-1.088,1.26-2.048,2.012-2.852   c0.909-0.975,1.953-1.982,3.085-2.804C44.326,32.474,44.034,33.131,43.712,33.77z"
    />
    <path
      d="M19.392,22.247c0.347,0.993,0.723,1.979,1.121,2.958c0.562,1.358,1.646,4.093,3.534,3.914   c2.169-0.205,2.22-2.958,1.581-4.407c-0.833-1.898-2.3-3.487-3.877-4.805c-0.741-0.621-1.665-1.482-2.578-1.833   C17.355,17.373,19.173,21.619,19.392,22.247z M23.817,23.058c0.847,1.026,1.844,2.461,1.618,3.863   c-0.183,1.128-1.439,1.99-2.396,1.23c-1.522-1.201-2.202-3.709-2.782-5.458c-0.423-1.274-0.785-2.57-1.095-3.881   C20.929,19.939,22.492,21.458,23.817,23.058z"
    />
    <path
      d="M11.583,50.602c0.799,0.862,1.811,1.494,2.928,1.826c0.665,0.189,2.165,0.332,2.57-0.388   c0.905-1.613-0.884-3.303-1.961-4.293c-1.763-1.617-3.903-3.02-6.086-3.998c-0.015-0.003-0.033-0.011-0.047-0.015   C8.979,43.73,8.972,43.73,8.961,43.73c-0.131,0-0.23,0.04-0.307,0.102c0.077-0.08,0.183-0.131,0.307-0.102   c-0.143-0.044-0.299,0.015-0.365,0.153c-0.537,0.632,0.599,3.063,0.811,3.527C9.95,48.586,10.703,49.656,11.583,50.602z    M12.732,46.651c1.417,0.989,3.184,2.278,3.867,3.936c0.555,1.347-0.993,1.424-1.92,1.23c-1.165-0.233-2.136-1.109-2.925-1.945   c-1.311-1.406-2.326-3.396-2.526-5.345C10.458,45.136,11.619,45.874,12.732,46.651z"
    />
    <path
      d="M65.352,49.437c-2.896,0.485-5.477,2.224-7.738,3.982c-1.888,1.457-4.02,5.98-6.768,5.962   c2.355-4.337,8.002-6.243,11.105-10.019c3.85-4.673,1.027-8.711-0.281-13.758c-0.111-0.356-0.449-0.487-0.785-0.449   c-4.02,0.598-6.824,5.963-9.029,8.899c-1.195,1.607-2.786,3.14-4.393,4.374c-0.319,0.243-2.3,1.533-2.001-0.355   c0.111-0.729,0.842-1.402,1.327-1.907c0.804-0.86,1.795-1.477,2.599-2.299c3.253-3.216,8.058-7.198,8.543-12.058   c0.356-3.439-1.758-8.898-4.673-11.142c2.972-4.599-4.188-8.805-6.917-11.646c-0.279-0.3-0.785-0.225-0.992,0.112   c-1.513,2.579-2.541,5.421-3.813,8.094c-1.214,2.562-2.766,5.813-5.384,7.253c0.581-2.504,3.011-4.823,4.188-7.028   c1.234-2.263,2.094-4.673,2.411-7.216c0.243-1.925-0.261-4.524-1.888-5.776c-2.504-1.907-5.871-1.869-8.523-3.496   c-1.795-1.084-2.674-1.346-4.562-0.3c-1.626,0.917-3.066,2.113-4.636,3.104c-1.459,0.935-3.159,1.384-4.73,2.075   c-1.794,0.786-2.412,2.244-3.159,3.963c-1.57,3.646-2.561,7.029-6.019,9.366c-0.02,0-0.02,0.019-0.02,0.019   c-3.178,1.421-3.533,6.674-4.898,9.421c-1.028,2.075-3.421,3.421-3.589,5.945c-0.206,2.767,1.309,4.916,1.926,7.515   c1.103,4.58,1.57,9.626,5.552,12.729c1.57,1.252,3.309,2.282,5.01,3.364c0.617,0.395,3.009,1.572,3.981,2.543   c-5.739-0.449-11.833-2.43-15.367-7.196c-0.336-0.467-1.178-0.355-1.158,0.317c0.112,4.785-1.084,9.066,1.42,13.479   c1.888,3.328,5.683,4.823,9.291,5.234c1.607,0.186,3.252,0.074,4.841-0.262c0.262-0.057,2.244-0.616,2.131-0.038   c-0.374,1.869-2.86,2.337-4.393,2.524c-4.299,0.561-9.197-0.523-13.179-2.15c-0.449-0.168-0.879,0.356-0.767,0.785   c2.43,8.227,10.824,16.189,19.778,16.208c6.431,0.038,8.15-7.215,10.45-12.283c0.262,6.171,0.056,5.461,0.299,11.591   c0.28,7.142-0.057,4.748,0.243,10.581c0.037,0.804,1.664,0.581,1.664-0.225c0.093-4.635,0.187-2.636-0.374-10.842   c-0.28-4.263-0.243-3.011-0.58-10.955c2.542,3.795,6.15,7.104,10.468,8.45c4.655,1.459,9.778,0.187,13.76-2.43   c10.636-6.974,10.411-22.246,10.411-33.462C66.137,49.604,65.745,49.361,65.352,49.437z M56.473,81.364   c-3.683,3.235-8.823,4.563-13.59,3.515c-4.973-1.103-9.123-5.701-11.515-10.019c0-0.898,0.018-1.776,0.037-2.654   c4.71,1.813,8.973,4.673,13.983,5.683c5.309,1.064,9.796-1.44,13.254-5.29c0.28-0.3-0.168-0.767-0.449-0.449   c-4.187,4.673-9.141,6.356-15.18,4.487c-4.037-1.234-7.646-3.589-11.589-5.086c0,0,0.019-0.99,0.019-1.01   c0.018-0.019,0.018-0.055,0.038-0.075c1.271-6.785,11.703-5.926,16.823-6.373c6.039-0.523,12.918-1.758,15.704-7.87   c0.149-0.374-0.375-0.691-0.543-0.319c-3.383,7.423-12.768,7.385-19.722,7.927c-4.131,0.317-10.095,0.617-12.225,4.599   c0.093-2.412,0.224-4.823,0.318-7.215c0.018-0.02,0.037-0.057,0.056-0.095c2.785-6.543,10.058-7.179,15.965-9.159   c4.935-1.644,8.58-5.047,11.684-9.123c0.243-0.318-0.299-0.635-0.542-0.318c-4.057,5.328-8.805,8.45-15.348,9.965   c-4.523,1.027-9.366,3.026-11.74,7.196c0.112-2.843,0.225-5.665,0.225-8.525c1.588-5.252,9.608-6.916,13.832-9.233   c5.197-2.879,7.349-7.515,8.918-13.011c0.111-0.393-0.485-0.562-0.599-0.169c-0.821,2.898-1.738,5.758-3.476,8.263   c-1.965,2.804-5.18,4.58-8.244,5.869c-3.403,1.421-8.432,3.253-10.431,6.75c-0.019-2.039-0.094-4.095-0.225-6.15   c-0.112-1.608-0.206-3.216-0.299-4.842c0.897-4.636,6.485-7.908,9.721-10.824c3.57-3.196,6.543-7.178,6.879-12.113   c0.038-0.393-0.599-0.393-0.617,0c-0.429,6.095-5.027,10.45-9.497,14.058c-2.354,1.889-5.289,4.263-6.579,7.197   c-0.187-2.954-0.337-5.907-0.486-8.86c-0.093-1.851-0.168-3.701-0.262-5.552c2.001-1.346,3.328-3.646,4.469-5.702   c1.514-2.691,2.822-5.777,3.233-8.861c0.057-0.392-0.561-0.56-0.617-0.168c-0.354,2.636-1.402,5.159-2.541,7.534   c-1.086,2.262-2.505,4.917-4.6,6.468c-0.037-0.485-0.056-0.972-0.093-1.458c-0.319-3.758-0.729-7.497-0.729-11.273   c0-1.888-0.13-3.757-0.225-5.645c-0.018-0.412-0.654-0.412-0.635,0c0.093,1.943,0.206,3.907,0.075,5.851   c-0.206,2.897,0.15,11.833,0.299,13.384c-3.944-4.019-7.216-9.047-7.515-14.768c-0.019-0.411-0.635-0.411-0.616,0   c0.318,6.15,3.925,11.516,8.206,15.74c0.094,0.841,0.149,1.683,0.187,2.524c0.243,4.823,0.505,9.646,0.804,14.469   c-1.794-2.654-4.673-4.879-6.823-7.029c-3.982-3.963-8.562-8.692-9.104-14.563c-0.038-0.393-0.673-0.393-0.635,0   c0.467,5.028,3.757,9.123,7.066,12.693c1.813,1.981,3.757,3.833,5.646,5.702c1.365,1.365,2.991,2.822,3.944,4.542   c0,0.187,0.019,0.374,0.019,0.542c0.243,3.702,0.43,7.365,0.43,11.029c-2.244-3.029-6.786-4.336-10.001-5.813   c-6.581-3.047-9.74-9.684-14.357-14.861c-0.28-0.299-0.729,0.131-0.448,0.448c3.963,4.431,6.786,9.87,11.702,13.385   c3.795,2.692,10.786,3.533,13.085,7.982c0,1.327-0.037,2.654-0.112,3.981c-0.037,0.804-0.075,1.608-0.13,2.412   c-0.71-1.16-2.094-1.963-3.571-2.562c-1.495-0.599-3.065-1.01-4.187-1.327c-2.262-0.654-4.337-1.514-6.413-2.654   c-2.561-1.402-5.72-3.179-7.215-5.776c-0.206-0.356-0.748-0.038-0.542,0.317c2.037,3.55,7.047,6.112,10.693,7.609   c2.972,1.232,11.497,2.13,11.104,6.504v0.039c-0.112,1.831-0.225,3.682-0.319,5.513c-2.672-3.104-7.234-3.064-11.01-3.121   c-5.646-0.094-12.188-0.393-16.208-4.878c-0.281-0.3-0.729,0.149-0.449,0.447c3.141,3.514,7.777,4.469,12.282,4.861   c4.842,0.429,11.74-0.935,15.142,3.383c0.057,0.074,0.131,0.113,0.187,0.113c0,0.204,0,0.41-0.018,0.616   c-3.59,1.328-6.674,3.439-9.927,5.421c-4.3,2.617-8.506,3.478-13.348,1.794C6.561,77.253,6.412,77.869,6.786,78   c3.851,1.327,7.421,1.253,11.142-0.41c4.299-1.927,7.851-5.048,12.282-6.75c-0.056,1.327-0.093,2.675-0.112,4.002   c-2.617,4.468-3.607,12.712-9.74,13.497c-3.907,0.485-8.095-1.888-11.142-4.075c-3.458-2.468-6.131-6.003-7.57-9.984   c4.056,1.478,8.692,2.226,12.936,1.665c1.42-0.188,3.664-0.767,4.431-2.169c0.393-0.728,1.158-2.111,0.186-2.747   c-0.935-0.637-2.299-0.188-3.309,0.036c-2.542,0.561-5.234,0.318-7.701-0.467c-3.683-1.196-6.038-4.581-6.542-8.319   c-0.281-2.224,0.112-4.506,0.243-6.768C6,59.961,12.282,61.755,18.245,62.035c0.337,0.019,0.635-0.299,0.617-0.635   c-0.094-1.98-4.113-3.739-5.496-4.617c-1.552-0.991-3.16-1.982-4.618-3.122c-2.094-1.645-3.122-4.299-3.794-6.786   c-0.636-2.374-0.823-4.861-1.664-7.178c-0.393-1.029-0.897-1.981-1.215-3.048c-0.673-2.317,0.691-4.037,2.056-5.682   c1.141-1.328,1.776-2.73,2.337-4.355c0.636-1.776,1.216-5.385,3.141-6.245c0.019,0,0.019-0.018,0.038-0.018   c0.057,0,0.149-0.038,0.225-0.093c4.374-2.954,5.084-7.441,7.383-11.833c1.01-1.926,4.058-2.281,5.852-3.178   c2.262-1.14,5.496-5.104,8.075-3.514C33.237,3,35.217,3.524,37.536,4.197c4.15,1.215,4.449,4.879,3.439,8.506   c-0.635,2.355-1.869,4.636-3.196,6.673c-1.327,2.019-2.99,3.589-2.99,6.131c0,0.393,0.393,0.749,0.785,0.617   c6.058-2.168,7.684-10.431,10.468-15.665c2.711,2.43,8.805,6.412,5.871,9.926c-0.263,0.318-0.243,0.767,0.13,0.991   c2.411,1.421,3.552,4.898,4.244,7.459c0.953,3.439-0.468,5.981-2.579,8.655c-1.702,2.131-3.721,4.393-5.852,6.075   c-1.234,0.992-3.889,2.879-3.702,4.767c0.468,4.599,5.44-0.036,6.768-1.383c1.438-1.421,2.579-3.009,3.775-4.636   c1.44-1.944,3.402-5.029,5.907-5.795c0.599,1.981,1.44,3.888,2.001,5.888c0.916,3.159-1.084,5.87-3.29,7.909   c-3.253,2.99-8.133,4.953-9.945,9.215c-0.168,0.392-0.057,0.784,0.374,0.935c2.804,0.897,4.991-1.927,6.579-3.813   c2.244-2.618,5.142-5.01,8.563-5.851C64.904,61.268,64.942,73.925,56.473,81.364z"
    />
  </g></svg>
