<svg
  fill="currentColor"
  xmlns="http://www.w3.org/2000/svg"
  xmlns:xlink="http://www.w3.org/1999/xlink"
  version="1.1"
  x="0px"
  y="0px"
  viewBox="0 0 67.324 100"
  enable-background="new 0 0 67.324 100"
  xml:space="preserve"
><path
    d="M49.449,62.199c2.091-1.264,4.747-1.721,7.1-2.221c3.745-0.827,8.167-1.438,10.149-5.183  c2.046-3.922-1.504-9.082-2.331-12.872c-0.088-0.436-0.523-0.589-0.894-0.523c-0.587,0.109-1.132,0.262-1.676,0.479  c0.217-0.304,0.436-0.587,0.652-0.87c2.984-4.16-0.24-7.667-1.459-11.827c-0.195-0.653-0.959-0.653-1.329-0.172  c-1.829,2.437-3.637,4.834-5.641,7.121c-1.459,1.655-4.072,4.966-6.663,5.487c2.918-4.05,7.557-6.555,10.433-10.715  c3.505-5.051-0.22-9.909-2.854-14.373c-0.195-0.328-0.653-0.457-0.98-0.262c-0.632,0.392-1.176,0.849-1.697,1.351  c0.412-3.071-1.287-6.969-3.724-8.516c-2.353-1.525-4.031,0.915-5.054,2.788c-1.48,2.657-2.506,6.925-4.987,9.082  c0.349-3.396,2.331-6.01,3.637-9.19c1.416-3.462-0.674-6.359-3.137-8.647C37.188,1.589,35.444,0,32.961,0  c-2.308,0-4.53,2.133-6.185,3.505c-5.249,4.4,1.197,10.172,2.003,15.464c-2.527-1.285-2.397-5.814-3.354-8.188  c-1.176-2.897-3.877-3.137-6.077-1.287c-3.312,2.789-3.267,7.166-1.85,10.868c1.348,3.594,4.702,6.447,5.902,10.107  c-4.683-2.418-6.644-8.735-7.863-13.503c-0.174-0.653-0.98-0.653-1.351-0.174c-2.091,2.852-4.53,7.033-4.596,10.977  c-0.108-0.219-0.196-0.436-0.283-0.653c-0.283-0.632-1.197-0.764-1.415,0c-1.089,3.724-4.181,7.187-3.877,11.236  c0.262,3.682,3.941,7.102,6.621,9.235c1.002,0.785,2.025,1.372,3.18,1.895c0.761,0.349,1.504,0.698,2.265,1.067  c1.219,0.587,0.544,0.87-0.589,0.674c-4.855-0.806-9.058-4.551-11.455-8.711c-0.304-0.521-1.197-0.434-1.351,0.174  c-0.891,4.073-2.46,8.624,0.611,12.197c3.333,3.898,7.884,5.641,12.61,7.166c-2.244,3.505-12.872-4.182-14.484-6.274  c-0.413-0.566-1.327-0.413-1.348,0.372c-0.219,4.615-0.198,9.256,3.309,12.719c4.094,4.094,9.147,2.678,14.222,2.96  c-3.05,2.788-11.042,0.045-14.462-0.063c-0.434,0-0.87,0.5-0.695,0.936c1.784,4.53,6.38,6.056,9.692,9.212  c2.96,2.81,5.944,7.862,10.604,7.601c2.984-0.174,4.987-3.245,6.295-5.574c1.306-2.31,2.199-4.792,3.135-7.253  c-0.196,17.228,0.023,5.097-0.761,22.39c-0.045,0.936,1.35,1.327,1.393,0.392c0.851-16.771,0.502-6.164,0.851-23.891  c2.025,4.789,3.223,11.804,8.799,12.391c7.253,0.785,15.658-7.145,18.314-13.306c0.262-0.589-0.151-1.199-0.804-1.067  c-3.616,0.782-7.733,1.763-11.108-0.087c4.726-2.831,11.304,1.371,15.507-2.918c3.005-3.071,2.178-8.844,1.306-12.568  c-0.087-0.37-0.545-0.652-0.892-0.499c-4.466,1.676-8.364,4.53-12.916,6.076c-1.089,0.37-2.221,0.587-3.396,0.587  C46.291,64.203,48.817,62.569,49.449,62.199z M46.159,65.075c5.838,2.613,12.959-3.528,18.295-5.859  c0.849,4.117,1.264,10.368-3.55,11.761c-4.792,1.394-9.539-1.48-13.852,2.049c-0.413,0.325-0.196,0.891,0.152,1.152  c3.396,2.526,7.688,1.961,11.63,1.155c-1.394,2.481-3.42,4.572-5.574,6.446c-2.788,2.439-7.231,5.466-11.151,4.639  c-5.249-1.11-5.793-10.039-8.386-13.895c0-0.109,0-0.218-0.021-0.305c1.721-0.74,3.791,0.783,5.163,1.676  c2.003,1.285,3.92,2.68,6.031,3.812c3.333,1.786,6.861,2.178,9.933-0.262c0.37-0.304-0.153-0.806-0.502-0.521  c-4.552,3.637-9.69-0.023-13.676-2.701c-1.808-1.242-4.596-3.55-6.991-2.768c0-0.108,0-0.195-0.023-0.282v-0.021  c4.771-2.744,11.13-2.374,16.4-3.05c5.315-0.653,10.606-2.112,13.961-6.576c0.262-0.392-0.37-0.74-0.632-0.37  c-7.121,9.518-20.603,4.072-29.772,9.189c-0.066-1.284-0.132-2.548-0.174-3.832c2.831-4.29,9.822-6.251,14.136-8.167  c5.378-2.397,11.65-5.249,14.352-10.847c0.195-0.436-0.415-0.806-0.632-0.37c-2.918,6.055-10.149,8.843-15.964,11.413  c-3.725,1.634-9.103,3.354-11.934,6.796c-0.087-2.701-0.132-5.424-0.153-8.146c1.306-2.461,3.965-3.767,6.402-4.942  c2.419-1.199,4.792-2.376,7.166-3.682c4.683-2.614,9.758-5.728,12.239-10.694c0.22-0.413-0.412-0.783-0.631-0.37  c-2.787,5.577-8.799,8.711-14.048,11.566c-3.55,1.938-8.646,3.33-11.128,6.751c-0.021-2.768-0.021-5.532,0-8.297  c1.7-3.639,5.205-5.511,8.363-7.884c5.271-3.922,9.039-9.234,12.065-15.007c0.218-0.413-0.414-0.783-0.631-0.37  c-3.354,6.425-7.58,11.804-13.504,15.985c-2.46,1.744-4.769,3.354-6.293,5.772c0-1.198,0-2.418,0.021-3.616  c0-2.157,0-4.334,0.021-6.534c3.138-1.023,5.162-4.792,6.729-7.403c2.376-3.964,4.139-8.386,6.84-12.153  c0.283-0.37-0.349-0.742-0.631-0.37c-2.136,2.96-3.658,6.423-5.402,9.626c-1.676,3.048-3.963,8.188-7.536,9.539  c0.023-3.724,0.045-7.448,0.153-11.172c1.459-5.664,4.684-10.738,5.662-16.532c0.087-0.479-0.632-0.674-0.695-0.196  c-0.828,4.9-3.246,9.279-4.88,13.918c0.217-5.619,0.74-11.566-0.915-17.032c-0.132-0.436-0.849-0.262-0.719,0.196  c0.936,2.962,0.849,5.728,0.61,8.777c-0.087,1.131-0.153,2.265-0.219,3.42c-0.13,2.22-0.217,4.441-0.283,6.664  c-0.13,4.509-0.174,9.016-0.196,13.524c-4.53-7.47-10.911-14.199-12.697-22.976c-0.109-0.458-0.806-0.262-0.719,0.195  c1.895,9.169,8.69,16.139,13.287,23.978c0.042,0.066,0.087,0.108,0.129,0.132c0,1.48,0,2.939-0.021,4.398v2.962  c-7.818-3.855-11.87-11.521-16.355-18.599c-0.262-0.393-0.893-0.021-0.631,0.392c4.615,7.274,8.82,15.158,16.965,19.014  c0,3.767-0.023,7.536,0.021,11.302c-2.027-2.765-4.836-4.182-7.905-6.076c-5.511-3.354-10.303-7.774-14.484-12.674  c-0.304-0.349-0.827,0.172-0.523,0.521c3.595,4.205,7.602,7.929,12.087,11.108c3.877,2.765,8.341,4.311,10.826,8.471  c0.042,2.048,0.064,4.072,0.13,6.121c-1.655-2.701-4.879-3.835-8.08-4.662c-6.272-1.655-12.61-5.054-17.291-9.561  C6.174,50.396,5.651,50.919,6,51.246c3.658,3.526,8.233,6.228,12.914,8.144c4.509,1.853,11.413,2.136,13.067,7.493  c0.045,1.242,0.087,2.481,0.174,3.724c-2.81-2.505-7.078-2.83-10.672-3.18c-4.507-0.414-11.804,0.218-14.96-3.745  c-0.306-0.37-0.806,0.151-0.523,0.5c2.416,3.05,7.078,3.267,10.649,3.595c4.9,0.436,11.957-0.066,15.572,3.919  c0,0.196,0.021,0.37,0.021,0.545c-2.548,1.676-5.009,3.571-7.884,4.747c-3.877,1.569-9.235,0.785-13.11-0.325  c-0.457-0.132-0.655,0.587-0.195,0.719c3.962,1.131,8.122,1.393,12.195,0.674c3.201-0.565,6.032-2.852,8.754-4.747  c-1.959,4.813-3.55,12.544-8.559,14.548c-3.919,1.591-7.971-4.639-10.258-6.97c-2.722-2.788-6.882-4.137-8.841-7.557  c4.726,0.544,12.806,3.113,15.288-1.766c0.261-0.521-0.087-1.022-0.632-1.089C13.688,69.801,8.96,71.695,4.409,67.84  c-2.873-2.438-3.071-6.402-2.939-9.973c4.051,3.767,14.352,10.278,16.138,3.92c0.108-0.394-0.132-0.785-0.502-0.894  c-3.875-1.221-7.578-2.461-10.781-5.054c-3.984-3.245-3.505-6.859-2.591-11.063c2.395,3.441,5.923,6.383,9.93,7.493  c1.155,0.304,2.767,0.914,3.922,0.238c0.674-0.392,1.24-1.677,0.63-2.351c-1.044-1.068-2.895-1.57-4.203-2.201  c-2.046-0.936-3.724-2.461-5.271-4.073c-2.46-2.569-3.919-5.379-2.701-8.863c0.698-2.003,1.787-3.811,2.614-5.772  c2.374,5.357,6.446,12.958,12.414,13.329c0.413,0.021,0.719-0.349,0.719-0.719c0.175-3.55-4.747-5.989-7.099-7.839  c-2.265-1.808-3.724-3.573-3.573-6.642c0.153-2.984,1.7-5.989,3.42-8.516c1.501,5.421,4.073,11.651,9.713,13.567  c0.587,0.196,0.98-0.391,0.893-0.915c-1.089-7.382-11.912-13.22-4.749-20.973c3.573-3.877,4.792,5.315,5.272,6.729  c0.587,1.829,1.806,3.158,3.745,3.42c0.458,0.066,0.915-0.174,0.915-0.698c0-4.073-2.526-7.448-4.007-11.085  c-1.133-2.81,1.546-4.509,3.462-5.902c3.31-2.418,5.401-1.219,8.167,1.176c3.354,3.071,3.767,5.553,1.655,9.43  c-1.525,2.81-2.744,5.487-2.636,8.754c0,0.589,0.589,0.872,1.089,0.632c2.419-1.197,3.637-4.028,4.727-6.314  c0.589-1.242,2.7-7.448,4.726-6.513c1.612,0.762,2.788,3.724,3.245,5.249c0.719,2.461-0.936,4.573-2.548,6.228  c-2.481,2.571-5.489,4.596-6.795,8.059c-0.217,0.566,0.392,0.98,0.894,0.893c6.512-1.197,7.077-9.256,11.782-12.652  c1.24,2.025,2.569,3.962,3.375,6.206c1.197,3.267-0.719,6.098-2.875,8.384c-3.026,3.267-6.883,5.555-9.212,9.454  c-0.219,0.391-0.044,1.001,0.437,1.089c3.113,0.5,5.857-2.375,7.818-4.379c2.352-2.374,4.398-5.075,6.401-7.752  c0.502,1.372,1.089,2.701,1.721,4.028c1.396,2.962-0.304,5.119-2.241,7.405c-2.157,2.527-4.924,5.205-7.995,6.468  c-2.329,0.936-4.398,1.633-6.032,3.659c-0.414,0.502-0.152,1.176,0.523,1.241c8.059,0.74,10.366-8.994,17.117-10.78  c0.697,2.722,1.961,5.249,2.526,7.992c0.938,4.53-3.441,6.229-6.97,7.057c-4.137,0.96-11.236,1.417-12.848,6.251  C45.726,64.53,45.876,64.967,46.159,65.075z M13.601,35.021c0.434,0.349,0.87,0.674,1.285,1.002  c1.501,1.131,4.681,2.852,5.336,4.966c-2.81-0.655-4.923-3.573-6.47-5.751C13.709,35.171,13.665,35.108,13.601,35.021z M48.36,23.5  c-1.287,2.199-2.68,4.224-4.879,5.205C44.679,26.679,46.595,25.133,48.36,23.5z M52.759,49.785c-1.438,1.242-2.984,2.201-4.9,2.463  C49.317,51.159,51.083,50.548,52.759,49.785z"
  /></svg>
