<svg
  fill="currentColor"
  xmlns="http://www.w3.org/2000/svg"
  xmlns:xlink="http://www.w3.org/1999/xlink"
  version="1.1"
  x="0px"
  y="0px"
  viewBox="0 0 73.422 100.001"
  enable-background="new 0 0 73.422 100.001"
  xml:space="preserve"
><g>
    <path
      d="M66.324,5.783c-1.31-2.562-3.39-5.278-6.455-5.687C54.288-0.639,49.47,3.051,44.075,3.75   c-2.999-0.16-5.41-1.733-8.308-2.106C32.73,1.25,30.168,2.047,27.664,3.76c-2.67,1.832-4.719,4.435-7.384,6.308   c-2.631,1.853-5.879,2.789-8.409,4.771c-4.756,3.71-6.614,8.802-8.274,14.417c-1.537,5.196-4.238,10.655-3.457,16.203   c0.802,5.718,6.008,10.629,9.03,15.282c3.524,5.413,6.799,10.976,11.248,15.7c4.655,4.952,9.928,6.924,16.399,8.456   c4.768,1.123,8.101,3.41,10.952,7.358c1.865,2.577,3.41,5.294,5.604,7.623c0.24,0.264,0.802,0.077,0.753-0.311   c-0.655-5.449,0.525-9.802,3.366-14.438c2.706-4.388,5.521-8.549,7.395-13.393c2.093-5.418,3.451-11.141,5.273-16.657   c1.845-5.553,2.813-11.359,3.161-17.191C73.983,26.752,71.37,15.683,66.324,5.783z M71.649,45.174   c-0.813,5.206-2.593,10.086-4.13,15.096c-1.707,5.563-3.073,11.208-5.821,16.383c-2.044,3.851-4.761,7.297-6.753,11.168   c-1.698,3.302-2.117,6.825-1.832,10.433c-3.358-3.975-5.48-8.808-9.879-11.882c-2.086-1.459-4.847-2.019-7.26-2.593   c-3.664-0.869-7.046-1.796-10.221-3.907c-5.542-3.699-9.372-9.531-12.916-15.038c-3.292-5.117-7.154-9.981-10.195-15.235   c-3.094-5.335-1.224-10.681,0.577-16.104c1.964-5.91,3.053-12.094,7.63-16.663c2.261-2.251,5.423-3.41,8.171-4.942   c2.583-1.438,4.688-3.39,6.818-5.402c3.033-2.872,6.427-4.74,10.712-3.762c2.484,0.554,4.613,1.661,7.169,1.878   c0.067,0.326,0.127,0.663,0.176,0.988c-6.967,0.191-14.057,2.463-20.398,5.175C16.352,13.82,8.579,18.715,6.183,26.561   c-0.073,0.222,0.274,0.311,0.341,0.098c2.391-7.83,10.099-12.456,17.152-15.586c6.212-2.753,13.4-4.947,20.262-5.123   c0.264,2.204,0.015,4.466-0.456,6.722c-5.465,5.879-14.711,4.901-21.573,8.114C13.96,24.516,9.477,32.459,5.841,40.041   c-0.093,0.207,0.212,0.393,0.311,0.186c4.145-8.642,9.34-17.273,19.048-20.229c5.985-1.816,13.444-2.06,18.143-6.665   c-0.714,3.193-1.788,6.36-2.386,9.361c-0.057,0.279-0.108,0.543-0.149,0.817c-0.006,0.057-0.021,0.109-0.029,0.166   c0.008-0.051,0.014-0.098,0.023-0.15c-4.328,7.084-11.588,11.146-17.775,16.436c-6.918,5.915-10.005,13.522-9.734,22.589   c0.005,0.228,0.362,0.228,0.354,0C13.35,52.534,17.27,45.071,24.916,38.851c5.594-4.549,11.75-8.347,15.741-14.433   c-0.745,4.88-0.562,9.817,0.215,14.676c-2.257,5.211-5.089,10.127-6.476,15.675c-1.723,6.872-1.532,14.277-1.532,21.31   c0,0.228,0.357,0.228,0.357,0c0-6.732,0.135-13.387,1.268-20.047c0.988-5.792,4.119-10.971,6.483-16.291   c0.497,2.991,1.103,5.936,1.708,8.89c0.005,0.005,0.005,0.016,0,0.021c-0.329,9.517-6.983,18.599-5.182,28.188   c0.044,0.218,0.385,0.13,0.341-0.098c-1.708-9.093,4.276-17.781,5.109-26.801c0.715,3.509,1.402,7.028,1.879,10.598   c0.321,2.35,0.527,4.808,0.776,7.261c-1.061,4.254-2.07,8.518-2.769,12.854c-0.036,0.228,0.305,0.32,0.342,0.098   c0.642-4.021,1.558-7.969,2.54-11.917c0.207,1.92,0.45,3.824,0.813,5.718c0.378,1.967,1.087,3.731,1.816,5.563   c0.811,2.018,1.457,4.212,1.962,6.334c0.052,0.217,0.398,0.124,0.341-0.104c-0.491-1.982-1.151-3.913-1.801-5.848   c-0.289-0.885-1.164-4.668-1.379-5.683c-0.354-1.723-0.613-3.472-0.82-5.221c-0.419-3.499-0.646-7.013-1.123-10.5   c-0.336-2.463-0.761-4.896-1.227-7.317c5.561,7.907,11.866,15.204,12.41,25.367c0.013,0.228,0.367,0.228,0.354,0   C56.508,66.62,49.84,59.152,44.132,50.902c-0.747-3.824-1.581-7.622-2.32-11.472c-0.362-1.889-0.577-3.767-0.668-5.641   c3.032,4.792,7.273,8.502,11.245,12.508c5.33,5.372,8.419,11.396,8.233,19.105c-0.006,0.229,0.352,0.229,0.356,0   c0.155-6.546-1.92-12.026-6.137-16.994C50.36,43.13,44.745,39.073,41.112,33.06c-0.163-4.968,0.533-9.905,1.744-14.8   c0.145-0.569,0.284-1.138,0.435-1.708c0.932,1.361,2.298,2.091,3.895,2.722c3.565,1.397,7.066,2.189,10.114,4.709   c3.674,3.032,5.951,8.605,7.586,12.942c2.013,5.314,2.82,11.121,1.438,16.679c-0.057,0.228,0.285,0.32,0.342,0.104   c2.24-9.026-1.216-18.278-5.874-25.958c-1.857-3.068-4.444-5.459-7.793-6.82c-3.139-1.283-7.68-1.744-9.578-4.838   c0.595-2.282,1.2-4.595,1.407-6.914c2.049,0.776,3.943,0.678,6.138,0.269c2.212-0.409,4.212-0.864,6.476-0.466   c2.725,0.476,4.754,2.996,6.192,5.139c4.021,5.998,5.061,14.334,4.817,21.388c-0.005,0.228,0.352,0.228,0.357,0   c0.243-7.09-0.952-14.542-4.398-20.808c-1.537-2.79-3.794-5.087-6.867-6.06c-4.272-1.355-8.329,1.842-12.679,0.161   c0.093-1.413,0.041-2.831-0.256-4.254c4.67-0.74,8.784-3.374,13.55-3.689c5.041-0.331,7.204,4.818,8.942,8.606   C72.224,20.64,73.527,33.081,71.649,45.174z"
    />
    <path
      d="M8.424,25.629c0.021,0.119,0.085,0.233,0.207,0.29c0.026,0.021,0.057,0.037,0.083,0.042c0,0,0,0,0.01,0.01   c0.013,0.005,0.034,0.011,0.047,0.011c0.015,0,0.031,0,0.044,0.01c1.012,0.269,1.927-0.352,2.755-0.875   c2.489-1.563,4.676-3.591,7.115-5.227c3.304-2.225,6.939-2.707,10.65-3.907c3.296-1.076,6.35-2.805,9.273-4.647   c0.284-0.181,0.284-0.59,0-0.771c-6.236-3.933-12.114,1.925-17.771,4.243c-5.718,2.344-9.553,4.828-12.378,10.505   c-0.044,0.078-0.057,0.166-0.044,0.238c0,0.021,0,0.046,0.008,0.067C8.424,25.619,8.424,25.619,8.424,25.629z M20.246,16.004   c5.131-2.106,11.248-7.793,16.968-5.268c0.448,0.202-2.911,2.106-3.167,2.246c-1.586,0.854-3.26,1.527-4.955,2.143   c-2.427,0.875-5.11,1.03-7.452,2.116c-2.37,1.107-4.484,2.572-6.569,4.15c-1.061,0.807-3.724,3.602-5.529,3.772   C12.025,20.47,15.298,18.038,20.246,16.004z"
    />
    <path
      d="M23.208,34.261c1.31-0.999,14.127-9.677,12.114-11.4c-1.739-1.49-4.743-0.647-6.727-0.223   c-3.943,0.849-7.814,2.318-11.473,4c-3.633,1.666-5.382,5.02-7.048,8.543c-1.765,3.741-3.508,8.797-2.013,12.901   c0.005,0.016,0.013,0.036,0.026,0.052c0.052,0.155,0.186,0.274,0.398,0.269c2.869-0.062,5.076-4.336,6.52-6.339   C17.371,38.778,20.005,36.667,23.208,34.261z M8.801,47.493c-1.304-4.145,0.725-9.061,2.468-12.767   c1.467-3.094,3.183-5.832,6.298-7.317c2.934-1.402,6.044-2.479,9.162-3.374c1.488-0.43,3.004-0.771,4.541-0.978   c0.605-0.078,4.119-0.274,3.162,0.947c-3.503,4.477-9.346,7.7-13.832,11.11c-1.563,1.195-3.123,2.37-4.404,3.886   C14.452,41.071,11.797,47.021,8.801,47.493z"
    />
    <path
      d="M34.117,37.723c-1.656-1.791-4.875-0.657-6.624,0.269c-3.511,1.863-6.085,5.62-7.958,9.009   c-1.343,2.422-2.029,5.175-1.951,7.944c0.098,3.478,1.382,6.862,3.503,9.609c1.485,1.931,4.052,5.107,6.725,3.338   c3.423-2.267,2.673-8.74,2.947-12.249C31.136,50.789,38.188,42.095,34.117,37.723z M30.034,54.07   c-0.393,2.955,0.191,14.205-4.642,13.403c-3.573-2.521-5.78-6.5-6.867-10.665c-0.885-3.349,0.253-6.397,1.777-9.357   c1.436-2.805,3.439-5.33,5.809-7.405c2.354-2.064,8.207-4.217,8.176,0.9C34.267,45.65,30.639,49.537,30.034,54.07z"
    />
    <path
      d="M47.674,22.017c-3.55,0.693-7.912,6.417-2.654,7.866c4.373,1.319,7.589,4.378,10.13,8.036   c1.28,1.837,3.716,5.33,6.279,5.397c3.281,0.078-1.418-10.903-1.845-11.975C57.356,25.826,54.531,20.687,47.674,22.017z    M60.519,42.131c-2.784-1.423-4.616-4.729-6.35-7.183c-1.982-2.789-5.646-4.937-8.906-5.92c-4.932-1.366,0.963-5.589,2.649-6.158   c3.136-1.061,6.334,0.678,8.135,3.157c2.313,3.183,3.68,7.643,4.818,11.379C61.007,37.888,62.49,43.146,60.519,42.131z"
    />
    <path
      d="M55.105,12.288c-0.026,0-0.047-0.005-0.078-0.005c-2.499-0.244-7.969-0.59-7.964,3.089c0.008,1.883,3.032,1.935,4.306,1.94   c2.613,0.01,4.471,0.212,6.836,1.47c1.286,0.683,2.51,1.376,3.896,1.847c0.271,0.093,0.58-0.15,0.564-0.424   C62.5,15.569,59.648,12.8,55.105,12.288z M60.13,18.829c-1.05-0.533-2.041-1.211-3.144-1.651c-0.882-0.347-1.85-0.761-2.813-0.797   c-0.626-0.057-1.244-0.057-1.873-0.005c-0.311,0.01-0.616,0.036-0.932,0.046c-1.485,0.259-3.813-0.497-2.624-2.603   c1.615-1.175,4.497-0.828,6.36-0.647c2.869,0.326,5.195,1.594,6.271,4.383C62.081,19.393,61.827,19.699,60.13,18.829z"
    />
    <path
      d="M53.03,3.036c-1.532-0.321-5.082,1.397-5.048,3.151c0.028,1.372,1.109,1.547,2.313,1.682   c2.87,0.321,5.802-0.15,8.606,0.663c0.271,0.078,0.582-0.135,0.562-0.43C59.271,4.567,56.26,3.072,53.03,3.036z M51.478,7.087   c-0.727-0.031-1.443-0.145-2.157-0.315c-1.396-0.332,0.703-1.837,0.905-1.961c0.776-0.497,1.813-1.014,2.764-0.942   c0.797,0.062,1.635,0.166,2.403,0.404c1.561,0.481,2.817,1.583,3.118,3.239C56.21,6.984,53.832,7.181,51.478,7.087z"
    />
  </g></svg>
