<svg viewBox="0 0 67 101" fill="currentColor" xmlns="http://www.w3.org/2000/svg">
<path d="M64.507 19.0693C60.556 17.4583 57.194 14.7563 52.935 14.0303C54.765 13.1793 57.046 14.5113 58.642 15.3843C59.44 15.8233 60.221 16.2973 61.043 16.6983C62.281 17.3043 63.702 17.7113 64.697 18.7023L64.717 18.7213C64.721 18.7283 64.729 18.7323 64.737 18.7383C64.738 18.7403 64.744 18.7433 64.748 18.7433C64.759 18.7503 64.774 18.7573 64.789 18.7623C64.808 18.7653 64.822 18.7683 64.841 18.7683C64.853 18.7683 64.863 18.7683 64.871 18.7653C64.878 18.7623 64.888 18.7603 64.894 18.7583C64.951 18.7343 64.984 18.6813 64.993 18.6223C64.995 18.6133 65.009 18.6143 65.009 18.6023C64.999 12.5613 60.917 5.95035 55.117 3.73135C52.82 2.85335 49.149 1.41935 46.724 2.59535C44.199 3.82235 44.706 6.49635 43.417 8.54035C42.06 6.42035 39.814 1.03735 36.715 3.77335C36.626 3.85235 36.663 4.03635 36.791 4.05535C39.039 4.39935 40.025 7.21435 41.107 9.27635C40.463 9.26635 39.668 9.45035 39.285 9.95635C38.214 9.68135 37.157 9.54135 36.005 9.79735C35.932 9.81235 34.959 10.1933 34.959 10.0143C34.959 9.52035 34.952 9.02735 34.973 8.53135C35.012 7.53435 35.521 6.59435 35.915 5.70035C37.262 2.66635 34.249 0.737347 31.549 0.180347C28.22 -0.504653 24.209 0.861347 21.392 2.59735C18.413 4.43335 16.296 7.35435 14.571 10.3263C14.537 10.3813 14.541 10.4323 14.564 10.4743C14.564 10.4783 14.564 10.4783 14.564 10.4813C14.585 10.5403 14.633 10.5863 14.716 10.5813H14.735C15.51 10.5493 16.253 10.4203 17.015 10.2713C18.295 10.0253 19.429 10.0633 20.699 10.3043C22.345 10.6213 24.026 11.0583 25.551 11.7763C21.596 13.0143 16.272 12.1013 13.013 9.62735C12.939 9.57335 12.82 9.61535 12.779 9.68735C11.331 12.3323 9.92299 15.0273 7.94799 17.3263C7.85099 17.4383 7.94099 17.6803 8.11499 17.6103C10.027 16.8073 12.046 17.1663 14.029 17.4853C15.731 17.7563 17.335 17.7883 19.035 17.5013C19.971 17.3453 20.891 17.1223 21.821 16.9523C22.438 16.8373 23.061 16.7723 23.684 16.7323C24.22 16.6973 23.636 17.0283 23.438 17.2633C22.54 18.3383 20.831 20.0023 19.291 19.6423C19.265 19.6363 19.243 19.6333 19.222 19.6403C18.826 19.4983 18.431 19.3553 18.041 19.2443C16.635 18.8503 15.058 19.1253 13.624 19.1713C11.99 19.2253 10.561 18.9373 9.00699 18.4853C7.86099 18.1523 6.72699 18.0093 5.59199 18.4343C5.42099 18.4993 5.43599 18.7673 5.63699 18.7673C8.32899 18.7693 8.36999 20.8863 9.29699 22.8043C9.34499 22.8993 9.39399 22.9883 9.44399 23.0693C8.82299 23.1103 8.21499 23.1913 7.63799 23.2913C5.95699 23.5843 4.21999 24.6843 2.86599 25.6513C1.47099 26.6453 0.332989 27.8893 0.0629892 29.6203C-0.563011 33.7063 3.60399 37.2383 6.92299 38.6343C7.09999 38.7083 7.27499 38.7803 7.45499 38.8543C7.46799 39.0193 7.48899 39.1843 7.51799 39.3563C7.54199 39.4943 7.71499 39.5013 7.80099 39.4313C7.91599 39.3333 8.03299 39.2333 8.14699 39.1333C10.018 39.8783 11.926 40.5533 13.8 41.2763C16.088 42.1573 18.118 43.0593 17.62 45.9143C17.59 46.0883 17.85 46.2353 17.929 46.0443C17.933 46.0313 17.94 46.0173 17.948 45.9993C18.684 44.2763 19.376 43.0733 20.957 42.0573C21 42.4293 21.132 42.7673 21.325 43.0963C21.347 43.1333 21.377 43.1583 21.411 43.1663C20.473 44.5483 19.715 46.0573 19.081 47.6333C19.031 47.7583 19.176 47.8703 19.291 47.8423C20.176 47.6283 21.398 47.9943 22.14 47.3003C22.372 47.0843 22.573 46.8423 22.761 46.5933C23.482 48.0933 24.245 49.5793 24.873 51.1203C24.877 51.1373 24.888 51.1503 24.897 51.1603C24.802 51.5053 24.78 51.8523 24.856 52.1763C24.665 52.2503 24.493 52.3453 24.341 52.4573C23.575 51.6033 22.403 51.1583 21.284 51.4663C21.124 51.5083 21.117 51.7483 21.284 51.7893C23.304 52.3063 22.701 53.6503 22.188 55.0963C22.015 55.5813 21.903 56.0693 21.853 56.5793C21.803 57.0463 22.301 58.0863 22.097 58.3983C21.604 59.1423 21.868 60.0993 22.329 60.7593C23.051 61.7953 24.75 61.7623 25.256 63.0133C25.375 65.6283 27.322 68.0604 26.89 70.6944C25.609 70.6944 24.327 70.6983 23.046 70.7033C23.033 70.6863 23.013 70.6664 22.983 70.6534C20.919 69.6274 18.67 69.1784 16.482 68.4854C14.794 67.9514 11.885 67.6924 11.699 65.5984C11.699 65.5944 11.699 65.5874 11.699 65.5814C11.716 65.5554 11.735 65.5274 11.729 65.4864C11.724 65.4414 11.705 65.3983 11.698 65.3543C11.699 65.3263 11.696 65.2993 11.698 65.2703V65.2663C11.699 65.1653 11.709 65.0664 11.726 64.9554C11.726 64.9534 11.726 64.9533 11.726 64.9533C11.984 64.0913 12.654 64.0703 13.26 63.5943C13.318 63.5513 13.325 63.4483 13.288 63.3903C12.537 62.2653 11.391 61.7253 10.201 61.2443C9.72999 59.8253 8.72799 58.9423 7.56599 58.0583C6.88299 57.5393 6.26799 57.1343 5.49599 56.7643C5.23599 56.6413 4.99399 56.4093 4.72999 56.2853C4.70599 56.2363 4.66699 56.1973 4.59599 56.1973C4.52899 56.1973 4.46199 56.1973 4.39899 56.1973C4.22399 56.1973 4.19399 56.4033 4.29699 56.4933C4.28799 56.5533 4.29699 56.6163 4.36599 56.6563C5.15099 57.1143 5.90399 57.6273 6.35899 58.4383C6.65899 58.9663 6.79999 59.4873 7.17199 59.9773C7.43199 60.3203 7.80799 60.5693 8.21199 60.7733C8.98899 61.2503 9.58599 62.1073 10.092 62.8253C10.611 63.5633 11.241 64.4853 11.373 65.4083C11.409 67.0183 12.773 67.7694 14.304 68.2464C16.958 69.0694 19.773 69.5523 22.306 70.7023C21.188 70.7023 20.073 70.7064 18.956 70.7064C18.953 70.7064 18.949 70.7084 18.943 70.7084C18.922 70.7084 18.897 70.7104 18.878 70.7234C18.841 70.7394 18.808 70.7743 18.793 70.8273C17.916 74.6213 17.383 78.5163 16.945 82.3793C16.536 86.0043 16.078 90.3014 17.677 93.7184V93.7214C17.681 93.7394 17.684 93.7534 17.692 93.7744C18.88 96.7404 22.365 98.2063 25.201 99.1133C27.295 99.7863 29.359 99.9423 31.532 99.9893C37.114 100.11 44.575 99.4614 47.986 94.4044C48.019 94.3974 48.052 94.3734 48.079 94.3304C48.146 94.2074 48.213 94.0834 48.274 93.9584C48.274 93.9584 48.274 93.9584 48.274 93.9544C48.303 93.9104 48.332 93.8613 48.36 93.8133C48.377 93.7833 48.383 93.7573 48.383 93.7313V93.7273C49.949 90.3973 49.536 86.2554 49.16 82.7184C48.736 78.7424 48.173 74.7273 47.271 70.8273C47.267 70.7973 47.252 70.7753 47.234 70.7573C47.234 70.7533 47.234 70.7533 47.234 70.7533C47.218 70.6863 47.167 70.6303 47.074 70.6303C43.819 70.6323 40.565 70.6434 37.31 70.6524C38.5 69.5624 39.43 68.1603 40.382 66.8703C41.2 65.7523 42.089 64.6923 42.948 63.6043C44.986 61.0283 47.192 58.0413 47.677 54.7043C47.727 54.7263 47.779 54.7513 47.827 54.7743C49.002 55.3663 49.688 57.2553 50.096 58.4083C50.158 58.5833 50.423 58.5603 50.429 58.3623C50.45 57.3673 50.691 56.9313 51.489 56.3963C52.009 56.0463 52.521 56.0243 53.046 55.7563C53.784 55.3863 53.463 54.4403 53.139 53.8603C52.403 52.5443 49.725 52.1263 48.532 53.0853C47.959 52.7433 44.781 50.9643 44.429 51.9953C44.195 52.6823 45.071 53.4613 45.56 53.8033C45.961 54.0863 46.456 54.2513 46.943 54.4193C45.686 59.9513 40.812 63.7934 37.528 68.2104C38.047 65.4964 38.902 62.8453 39.802 60.2483C41.21 56.1873 42.866 52.2133 44.567 48.2633C46.091 44.7113 47.68 41.1863 49.192 37.6263C50.157 35.3543 51.243 33.0093 51.763 30.5823C52.369 30.5503 52.968 30.5173 53.55 30.5063C56.096 30.4663 60.132 30.4153 60.965 33.4743C61.017 33.6573 61.303 33.6223 61.298 33.4303C61.277 32.6883 61.202 31.9803 61.346 31.2443C61.571 30.0823 62.574 30.0143 63.386 29.6023C64.026 29.2783 64.661 28.7863 64.747 28.0113C64.93 26.3263 62.729 25.6623 61.541 25.0853C59.233 23.9693 56.91 22.7963 54.343 23.9693C53.759 24.2343 53.132 24.5813 52.867 25.2083C52.626 25.7863 52.724 26.5133 52.284 26.9793C51.257 26.0343 50.279 25.1013 48.858 24.8333C47.698 24.6123 46.191 25.0933 45.306 25.8603C43.696 27.2533 43.911 29.4203 46.035 30.1683C47.437 30.6643 48.973 30.7043 50.497 30.6473C50.409 33.0233 49.044 35.5723 48.127 37.6893C46.519 41.4113 44.737 45.0623 42.977 48.7163C41.205 52.3943 39.412 56.0693 37.748 59.7993C37.201 61.0293 36.586 62.3093 36.076 63.6203C35.644 60.9143 35.385 58.1813 35.124 55.4543C35.124 55.4503 35.124 55.4503 35.124 55.4493C35.132 54.1753 35.422 52.8523 35.6 51.6033C35.991 48.9103 36.426 46.2263 36.876 43.5433C37.859 37.6643 38.884 31.7843 40.152 25.9603L40.154 25.9573C40.803 25.3933 41.346 24.7023 41.744 23.8713C42.416 22.4623 41.77 21.5193 40.74 20.9453C40.699 19.4253 40.89 17.8763 41.137 16.3803C41.351 15.0833 41.717 12.2113 43.276 11.8203C43.291 11.8173 43.306 11.8133 43.315 11.8013C44.024 12.2613 44.805 12.6323 45.507 12.9883C47.137 13.8163 48.516 14.7173 49.991 15.7873C54.518 19.0773 63.453 18.9903 63.901 26.1423C63.908 26.3123 64.12 26.3663 64.214 26.2263C64.956 25.1263 64.82 23.8523 65.985 23.0043C66.446 22.6693 66.859 22.2593 66.923 21.6663C67.083 20.1973 65.666 19.5443 64.507 19.0693ZM6.65199 58.2693C6.49999 57.9343 6.25399 57.6533 5.97899 57.3943C6.27999 57.5543 6.57399 57.7253 6.86099 57.9473C8.03199 58.8453 9.16699 59.6783 9.73699 61.0523C9.43199 60.9313 9.12699 60.8133 8.82999 60.6823C7.67099 60.1763 7.15799 59.3683 6.65199 58.2693ZM10.382 62.6563C10.068 62.1933 9.70699 61.6903 9.29599 61.2463C9.30899 61.2523 9.32399 61.2583 9.33699 61.2633C9.60799 61.3733 13.62 63.0663 12.569 63.6623C11.996 63.9873 11.717 64.0903 11.5 64.6183C11.23 63.9133 10.784 63.2493 10.382 62.6563ZM41.293 9.62535C41.351 9.72835 41.408 9.82635 41.464 9.92235C41.031 9.90135 40.606 9.96935 40.24 10.2323C40.04 10.1693 39.839 10.1093 39.641 10.0523C40.016 9.67335 40.787 9.58735 41.293 9.62535ZM33.825 36.4203C34.093 33.7363 34.408 31.0523 34.486 28.3573C35.321 28.1433 36.09 27.8853 36.619 27.7423C37.201 27.5843 37.77 27.3853 38.307 27.1323C37.939 30.0743 37.25 33.2013 36.711 36.1733C35.991 40.1053 35.384 44.1443 34.279 47.9973C34.019 46.2443 33.706 44.5003 33.42 42.7523C33.42 42.7523 33.42 42.7503 33.42 42.7473V42.7393C33.435 40.8993 33.571 39.0673 33.748 37.2383V37.2363C33.938 36.9543 34.003 36.6703 33.825 36.4203ZM33.513 36.1523C33.242 35.9953 32.92 36.0523 32.603 36.1723C32.603 36.1553 32.6 36.1393 32.6 36.1233C32.568 33.6143 33.126 31.1363 33.197 28.6263C33.51 28.5813 33.831 28.5153 34.146 28.4403C34.065 31.0183 33.769 33.5843 33.513 36.1523ZM32.389 33.5573C32.251 31.9323 32.092 30.3083 31.805 28.6963C32.136 28.7263 32.49 28.7133 32.854 28.6723C32.808 30.3053 32.553 31.9293 32.389 33.5573ZM32.259 35.9193V35.9263C32.259 36.0303 32.259 36.1333 32.259 36.2363C32.259 36.2693 32.272 36.2993 32.285 36.3203C32.144 36.3923 32.012 36.4683 31.902 36.5313C31.895 36.5343 31.891 36.5363 31.883 36.5393C31.853 36.1103 31.816 35.6833 31.779 35.2553C31.781 35.2553 31.779 35.2503 31.779 35.2503C31.783 35.2373 31.781 35.2203 31.779 35.2023C31.775 35.1883 31.774 35.1773 31.772 35.1633V35.1603C31.567 32.8933 31.303 30.6393 30.844 28.4473C31.028 28.5423 31.233 28.6073 31.456 28.6513C31.891 31.0563 32.062 33.4893 32.259 35.9193ZM27.971 37.8113C27.398 37.7803 26.552 38.2523 25.873 38.7073C26.825 37.6553 27.766 36.3853 28.279 35.0253C28.456 35.0043 28.692 35.0013 28.658 35.2023C28.619 35.4343 28.469 35.6573 28.353 35.8573C28.186 36.1483 27.974 36.4203 27.877 36.7423C27.77 37.1063 27.878 37.4583 27.971 37.8113ZM28.2 36.8813C28.261 36.6673 28.373 36.4933 28.484 36.3033C28.644 36.0273 28.812 35.7593 28.934 35.4613C29.146 34.9433 28.819 34.7193 28.391 34.6943C28.759 33.5633 28.517 31.9443 28.008 30.7683C28.451 30.4063 28.886 30.0323 29.306 29.6473C29.76 32.2213 30.202 34.8223 30.879 37.3473C30.566 37.6293 30.235 37.9193 29.906 38.1393C29.9 38.1403 29.897 38.1443 29.893 38.1473C29.817 38.1843 29.746 38.2383 29.67 38.2803C29.465 38.3883 29.228 38.4803 28.997 38.5153C28.789 38.5453 28.579 38.4033 28.465 38.2443C28.311 38.0273 28.238 37.7133 28.201 37.4523C28.17 37.2543 28.146 37.0753 28.2 36.8813ZM29.607 29.3923C29.607 29.3873 29.603 29.3783 29.596 29.3733C29.7 29.2753 29.804 29.1753 29.907 29.0723C30.411 31.1053 31.021 33.1163 31.426 35.1743C31.474 35.7063 31.519 36.2313 31.56 36.7623C31.59 36.7403 31.616 36.7193 31.643 36.7003C31.615 36.7213 31.589 36.7423 31.56 36.7653C31.432 36.8593 31.299 36.9733 31.162 37.0983C30.494 34.5703 30.057 31.9663 29.607 29.3923ZM30.182 28.7943C30.288 28.6823 30.396 28.5703 30.5 28.4543C30.779 29.7753 30.983 31.1213 31.151 32.4793C30.837 31.2573 30.494 30.0433 30.195 28.8193C30.191 28.8103 30.188 28.8023 30.182 28.7943ZM30.47 27.9623C30.464 27.9683 30.459 27.9733 30.455 27.9783C30.455 27.9803 30.452 27.9843 30.448 27.9863C30.08 28.4063 29.7 28.7933 29.349 29.1403C27.127 31.3273 24.408 33.0393 21.641 34.4453C20.194 35.1793 18.684 35.7893 17.133 36.2503C15.486 36.7403 13.916 36.7003 12.22 36.7323C11.807 36.7403 11.413 36.7893 11.035 36.8843C12.911 35.9083 13.603 33.7843 14.871 32.2243C15.918 30.9363 17.614 30.5623 19.119 30.0773C19.662 29.9023 20.177 29.6523 20.677 29.3823C20.819 29.3063 20.956 29.2273 21.095 29.1493C21.242 29.0623 21.404 29.0003 21.554 28.9213C21.688 28.8543 21.818 28.7913 21.952 28.7283C22.149 28.6363 22.819 28.2303 22.969 28.1413C23.348 27.9163 23.73 27.6943 24.094 27.4453C24.167 28.8703 24.552 30.1303 23.763 31.4713C23.719 31.5473 23.834 31.6153 23.878 31.5393C24.693 30.1593 24.284 28.8523 24.226 27.3583C25.526 26.5073 26.723 25.5603 27.612 24.2073C28.148 24.1803 28.588 23.6783 28.985 23.3163C29.881 22.4833 32.358 21.3923 32.507 23.4213C32.629 25.0773 31.597 26.6723 30.47 27.9623ZM17.322 21.9563C18.226 21.5713 19.152 21.2243 20.136 20.9753C23.6 20.1023 26.652 20.4473 29.618 22.4293C28.982 22.8833 28.018 23.9833 27.368 23.8313C26.974 23.0173 27.29 22.2453 26.236 21.8253C25.408 21.4943 24.028 22.2013 23.294 22.5133C22.288 22.9363 21.314 23.4913 20.302 23.9223C19.06 23.7053 18.375 22.5133 17.322 21.9563ZM19.781 24.1343C19.506 24.2393 19.223 24.3323 18.937 24.4053C18.26 24.5843 17.414 24.4943 16.957 25.1253C16.565 25.6773 16.241 26.2643 15.921 26.8573C15.344 26.2103 15.25 25.3073 14.686 24.6383C14.292 24.1723 13.847 23.8713 13.313 23.6313C14.55 23.1943 15.716 22.6473 16.898 22.1353C18.012 22.5403 18.672 23.7083 19.781 24.1343ZM30.648 18.1953C30.65 18.2433 30.656 18.2923 30.656 18.3433C30.659 18.4543 30.76 18.5353 30.872 18.5053C31.061 18.4543 31.255 18.3973 31.437 18.3273C30.057 19.2643 28.482 19.9443 27.02 20.7273C26.866 20.6733 26.709 20.6223 26.551 20.5763C28.101 20.1673 29.486 19.2863 30.648 18.1953ZM25.947 20.3713C25.921 20.3753 25.899 20.3863 25.88 20.4023C25.635 20.3433 25.382 20.2963 25.129 20.2643C25.85 19.4953 26.617 18.7713 27.435 18.1083C28.462 17.2753 30.232 16.1653 30.593 17.7943V17.7973C30.576 17.8023 30.56 17.8143 30.543 17.8303C29.267 19.0653 27.707 20.0293 25.947 20.3713ZM30.95 17.7093C30.27 14.3533 25.624 19.2273 24.717 20.2113C24.048 20.1373 23.356 20.1293 22.642 20.1893C24.827 18.8713 26.934 17.3083 28.95 15.7703C29.832 15.1013 30.65 14.3593 31.461 13.6053C31.85 15.0553 32.303 16.4633 31.662 17.9253C31.659 17.9423 31.655 17.9553 31.662 17.9683C31.326 18.1113 31.032 18.1163 30.95 17.7093ZM31.242 21.9203C31.241 21.9203 31.237 21.9203 31.237 21.9233C30.795 21.9533 30.352 22.0613 29.948 22.2433C29.128 21.6793 28.3 21.2273 27.447 20.8893C29.292 19.9183 31.263 19.0763 32.829 17.6773C33.74 17.1433 34.575 16.4613 35.369 15.7603C34.834 17.2443 34.525 18.9183 34.443 20.4633V20.4873C33.312 20.8443 32.439 21.5973 31.242 21.9203ZM35.908 15.3043C35.911 15.2933 35.919 15.2793 35.919 15.2693V15.2653C35.967 15.2233 36.012 15.1823 36.061 15.1393C36.135 15.0713 36.213 15.0013 36.291 14.9363C36.02 15.7783 35.874 16.6773 35.714 17.5393C35.553 18.4283 35.343 19.3873 35.368 20.2973C35.29 20.3063 35.214 20.3173 35.136 20.3283C35.015 20.3443 34.897 20.3653 34.784 20.3953C34.881 18.7183 35.253 16.8513 35.908 15.3043ZM36.094 17.3503C36.273 16.3913 36.444 15.3803 36.82 14.4753C38.227 13.2643 39.679 12.1203 40.818 10.6303C40.884 10.5383 40.81 10.4103 40.715 10.3803C40.706 10.3783 40.694 10.3753 40.687 10.3723C41.001 10.2423 41.344 10.2373 41.692 10.2773C41.744 10.3563 41.796 10.4293 41.85 10.5023C41.926 10.6023 42.004 10.6973 42.087 10.7893C39.586 13.0103 40.003 17.3793 39.233 20.3963C39.037 20.3503 38.837 20.3153 38.646 20.2883C37.686 20.1583 36.682 20.1613 35.708 20.2583C35.685 19.2933 35.919 18.2923 36.094 17.3503ZM35.002 10.5633C35.032 10.5413 35.053 10.5173 35.064 10.4893C35.689 10.2453 36.284 10.1023 36.882 10.0533C36.412 10.1653 35.997 10.3913 35.722 10.8093C34.737 12.2833 36.258 14.0313 34.87 15.4823C34.807 15.5453 34.905 15.6423 34.965 15.5783C35.804 14.7003 35.738 13.7223 35.592 12.5843C35.309 10.4113 36.979 10.0733 38.655 10.1543C38.869 10.1953 39.081 10.2433 39.304 10.3033C40.279 10.5653 40.323 10.7583 39.642 11.4873C39.086 12.0863 38.471 12.6333 37.861 13.1773C37.441 13.5543 37.009 13.9273 36.574 14.2943V14.2963C36.552 14.3173 36.537 14.3323 36.514 14.3483C36.514 14.3483 36.511 14.3483 36.511 14.3503C36.23 14.5923 35.952 14.8283 35.67 15.0663C35.658 15.0743 35.648 15.0823 35.64 15.0933C35.294 15.3863 34.945 15.6783 34.597 15.9743C33.978 16.5003 33.327 16.9693 32.639 17.3963C32.607 17.4133 32.577 17.4313 32.55 17.4503C32.353 17.5723 32.081 17.7623 31.821 17.8943C32.424 16.4063 31.966 14.9903 31.573 13.5013C32.678 12.4793 33.775 11.4463 35.002 10.5633ZM24.322 16.6403C24.391 16.5323 24.3 16.3823 24.177 16.3853C21.324 16.4503 18.602 17.5863 15.73 17.3803C13.328 17.2033 10.947 16.3623 8.59299 17.0813C9.80899 15.5753 10.81 13.9233 11.764 12.2373C12.063 11.7063 12.353 11.1733 12.643 10.6413C12.995 9.99935 13.061 10.1083 13.602 10.4573C14.287 10.8963 15.045 11.2163 15.8 11.5063C18.911 12.6963 22.856 13.1153 26.039 11.9743C26.165 11.9293 26.221 11.7363 26.08 11.6653C24.425 10.8203 22.595 10.3543 20.786 9.98335C18.74 9.56035 17.028 10.1083 15.019 10.2333C17.844 5.47535 21.565 1.86835 27.162 0.734347C28.909 0.381347 30.547 0.246347 32.289 0.707347C33.816 1.11135 35.919 2.35735 36.001 4.11635C36.047 5.08035 35.362 6.06135 35.013 6.92835C34.56 8.06035 34.619 9.21835 34.619 10.4183V10.4253C34.563 10.4683 34.504 10.5113 34.448 10.5533C30.712 8.75935 29.551 3.97935 26.027 1.87535C25.951 1.82935 25.884 1.94535 25.956 1.99135C29.46 4.08335 30.631 8.82935 34.328 10.6443C34.18 10.7583 34.031 10.8753 33.884 10.9943C28.807 11.0573 24.32 8.36435 19.463 7.28235C19.376 7.26335 19.34 7.39435 19.426 7.41235C24.242 8.48635 28.695 11.1323 33.716 11.1323C33.169 11.5753 32.645 12.0433 32.124 12.5143C28.899 12.4333 25.932 13.8683 22.841 14.5993C19.44 15.4043 15.923 14.3593 12.524 15.2093C12.439 15.2303 12.476 15.3613 12.558 15.3403C15.805 14.5293 19.134 15.3993 22.403 14.8293C25.661 14.2603 28.626 12.6133 31.979 12.6463C31.025 13.5133 30.091 14.3993 29.098 15.2233C26.904 17.0413 24.388 18.7943 21.92 20.2213C21.898 20.2353 21.883 20.2493 21.868 20.2673C21.842 20.2383 21.801 20.2193 21.745 20.2193C21.232 20.2303 20.73 20.1303 20.235 19.9833C21.901 19.6683 23.534 17.8723 24.322 16.6403ZM9.06399 21.2243C8.60299 19.7993 7.91699 18.8513 6.62899 18.5413C7.82499 18.4163 9.00399 18.8343 10.17 19.1883C11.464 19.5783 12.805 19.5383 14.146 19.4953C15.738 19.4413 17.216 19.3183 18.761 19.8183C18.891 19.8593 19.018 19.9033 19.144 19.9483C19.146 19.9483 19.151 19.9503 19.151 19.9503C19.162 19.9593 19.179 19.9643 19.199 19.9703C19.206 19.9723 19.21 19.9723 19.22 19.9763C19.75 20.1603 20.269 20.3553 20.81 20.4633C18.698 20.9063 16.778 21.7233 14.796 22.6393C14.234 22.9003 13.576 23.2273 12.896 23.4603C12.896 23.4603 12.896 23.4603 12.894 23.4603C12.693 23.5303 12.498 23.5923 12.297 23.6383H12.295C11.798 23.7653 11.308 23.8183 10.843 23.7363C10.571 23.6913 10.344 23.5733 10.151 23.4083C10.03 23.3083 9.92399 23.1873 9.82699 23.0513C9.44299 22.5133 9.24399 21.7763 9.06399 21.2243ZM7.43499 38.5013C5.29799 37.5293 3.33499 36.2833 1.89199 34.3613C0.504989 32.5143 -0.257011 29.9093 1.08499 27.8483C2.17099 26.1803 4.19399 25.0693 5.95799 24.2623C7.14599 23.7173 8.41299 23.4493 9.69899 23.4103C10.484 24.2723 11.691 24.1423 12.827 23.7923C13.553 24.0473 14.185 24.4723 14.616 25.1553C15.04 25.8303 15.189 26.5993 15.75 27.1683C15.613 27.4253 15.475 27.6803 15.33 27.9313C14.16 27.8483 13.173 27.3003 12.049 27.0383C11.062 26.8083 10.045 26.7963 9.07199 26.4793C7.82099 26.0733 6.33699 25.4093 5.06299 26.0753C4.98699 26.1153 5.05399 26.2323 5.13199 26.1913C6.67699 25.3813 8.63299 26.6003 10.194 26.8903C11.099 27.0583 11.996 27.1133 12.875 27.4103C13.682 27.6813 14.408 27.9833 15.252 28.0603C15.04 28.4183 14.809 28.7653 14.551 29.0993C14.177 29.5753 13.768 30.0313 13.333 30.4673L13.33 30.4703C10.325 31.2563 6.25199 30.8343 4.17899 33.5663C4.12899 33.6373 4.24399 33.7053 4.29599 33.6373C6.28199 31.0173 10.217 31.3533 13.148 30.6513C12.415 31.3723 11.627 32.0363 10.835 32.6593C8.82799 34.2313 7.34699 36.0063 7.43499 38.5013ZM8.04599 38.7713C7.83799 38.9043 7.76499 38.8153 7.74099 38.6403C7.71899 38.4883 7.73399 38.2703 7.72599 38.0783C7.69999 37.1463 8.04599 36.2683 8.51499 35.4833C9.35899 34.0763 10.836 33.1283 12.052 32.0833C13.135 31.1563 14.193 30.1623 15.042 29.0173C15.468 28.4413 15.817 27.8343 16.15 27.2233C16.466 26.6433 16.768 26.0553 17.115 25.4833C17.626 24.6353 19.389 24.7053 20.226 24.3203C21.61 23.6843 22.949 22.9553 24.392 22.4513C25.099 22.2043 25.902 21.9173 26.545 22.4163C26.917 22.7033 26.865 23.6073 27.099 24.0543C27.121 24.1023 27.162 24.1283 27.199 24.1333C27.201 24.1353 27.203 24.1353 27.203 24.1353C27.218 24.1413 27.229 24.1443 27.24 24.1493C26.868 24.6993 26.433 25.1813 25.965 25.6143C25.946 25.5913 25.915 25.5793 25.883 25.5953C23.413 26.8873 20.43 26.2833 17.844 27.2443C17.762 27.2753 17.797 27.4053 17.881 27.3743C20.393 26.4393 23.279 26.9763 25.719 25.8303C25.429 26.0823 25.128 26.3183 24.817 26.5433C24.309 26.9083 23.781 27.2443 23.249 27.5723C23.044 27.6973 22.836 27.8213 22.63 27.9463C22.529 28.0063 21.791 28.5023 21.514 28.6793C21.413 28.7443 21.319 28.8133 21.222 28.8843C21.17 28.9243 21.084 29.0033 21.01 29.0033C18.609 28.8703 16.339 29.8323 14.185 30.7833C14.107 30.8153 14.174 30.9343 14.256 30.8993C16.315 29.9883 18.492 29.0683 20.783 29.1303C20.104 29.4983 19.414 29.8373 18.67 30.0743C17.607 30.4183 16.364 30.7003 15.483 31.4403C13.664 32.9653 13.132 35.6533 10.949 36.7723C10.888 36.8053 10.916 36.8863 10.975 36.8953C10.287 37.0773 9.65799 37.3983 9.06299 37.8673C8.76299 38.1033 8.48599 38.3793 8.20399 38.6383C8.14699 38.6963 8.09099 38.7373 8.04599 38.7713ZM19.439 42.7333C18.78 43.3243 18.375 44.1333 18.029 44.9493C17.954 42.6933 16.091 41.7913 13.889 40.9503C12.1 40.2673 10.203 39.6663 8.39199 38.9183C8.95699 38.4103 9.51499 37.8973 10.181 37.5223C11.453 36.8043 13.141 37.1033 14.533 37.0843C15.238 37.0733 15.953 36.9513 16.66 36.7693C16.652 38.5853 17.638 40.1163 18.172 41.8063C18.2 41.8903 18.33 41.8553 18.304 41.7713C17.772 40.0813 16.778 38.5533 16.796 36.7353C17.776 36.4693 18.735 36.0893 19.632 35.7293C20.344 35.4443 21.049 35.1303 21.744 34.7903C22.919 35.0773 24.059 36.0093 24.32 37.2273C24.337 37.3133 24.465 37.2773 24.448 37.1943C24.191 35.9853 23.098 35.0403 21.93 34.6943C23.983 33.6733 25.947 32.4243 27.736 30.9903C28.188 32.0693 28.417 33.6243 28.056 34.7383C28.037 34.8013 28.015 34.8653 27.991 34.9273V34.9303C27.156 37.2803 24.99 39.4843 23.154 40.5283C21.894 41.2463 20.532 41.7473 19.439 42.7333ZM23.541 40.6003C23.024 41.1023 22.552 41.6393 22.115 42.1993C22.005 42.0283 21.931 41.8523 21.927 41.6463C21.927 41.5893 21.903 41.5483 21.871 41.5213C22.44 41.2083 23 40.9213 23.541 40.6003ZM21.28 41.8603C21.384 41.7953 21.488 41.7363 21.593 41.6793C21.604 41.9323 21.69 42.1643 21.827 42.3783C21.853 42.4163 21.887 42.4413 21.924 42.4493C21.816 42.5953 21.706 42.7413 21.598 42.8923C21.414 42.5703 21.287 42.2373 21.28 41.8603ZM22.169 46.8113C21.624 47.5023 20.774 47.3953 20.052 47.3883C20.219 47.3883 19.483 47.5373 19.571 47.3183C20.339 45.4113 21.362 43.6283 22.656 42.0293C23.324 41.2083 24.068 40.4993 24.895 39.8463C25.155 39.6403 27.463 37.8873 28.104 38.2583C28.121 38.2993 28.138 38.3373 28.16 38.3753C28.186 38.4153 28.21 38.4533 28.234 38.4903L28.247 38.5393C27.877 39.1463 27.12 39.5983 26.579 40.0023C25.817 40.5753 25.047 41.1313 24.299 41.7183C23.059 42.6853 21.446 43.9063 21.063 45.5243C21.011 45.7393 21.336 45.8283 21.387 45.6133C21.841 43.7143 24.076 42.2923 25.534 41.1963C26.442 40.5133 27.855 39.7813 28.498 38.7803L28.52 38.7663C28.553 38.7823 28.588 38.7933 28.627 38.8033C28.767 38.8383 28.914 38.8523 29.059 38.8383C29.126 38.8343 29.197 38.8193 29.264 38.8013C29.738 38.6793 30.114 38.3463 30.48 38.0343C30.844 37.7223 31.203 37.4223 31.588 37.1493C31.692 37.0733 31.802 37.0003 31.911 36.9273C32.039 36.8463 32.172 36.7643 32.309 36.6883C32.313 36.6853 32.317 36.6853 32.318 36.6823C32.435 36.6203 32.54 36.5833 32.636 36.5723C33.242 36.4833 33.354 37.3283 32.768 37.7343C32.759 37.7393 32.747 37.7483 32.74 37.7533C32.637 37.8213 32.535 37.8863 32.429 37.9513C32.287 38.0373 32.148 38.1213 32.011 38.2193C31.989 38.2333 31.963 38.2523 31.938 38.2683C31.855 38.3313 31.769 38.3933 31.684 38.4523V38.4553C30.222 39.5193 28.753 40.5903 27.299 41.6743C25.923 42.7013 24.463 43.5733 23.371 44.9303C22.905 45.5123 22.632 46.2203 22.169 46.8113ZM33.368 37.6693C33.267 38.7503 33.182 39.8313 33.134 40.9143C33.009 40.0663 32.896 39.2223 32.806 38.3703C32.799 38.2973 32.789 38.2213 32.784 38.1483C32.756 38.1693 32.728 38.1873 32.7 38.2083C32.728 38.1873 32.756 38.1673 32.784 38.1463C32.984 38.0003 33.189 37.8373 33.368 37.6693ZM31.735 68.9783C32.456 68.0113 33.048 66.0393 34.387 65.8003C34.469 66.0553 34.614 66.2573 34.778 66.4953C35.228 67.1513 34.599 68.0813 34.16 68.5633C33.487 69.2993 32.183 69.5764 31.188 69.4974C31.183 69.4764 31.177 69.4563 31.171 69.4383C31.454 68.2713 31.182 67.0603 31.489 65.8963C31.675 65.1873 32.199 64.8254 32.765 64.7764H32.768C32.843 64.7694 32.921 64.7694 33.002 64.7734H33.009C33.526 64.8104 34.041 65.1043 34.337 65.6273C34.34 65.6443 34.344 65.6563 34.346 65.6693C32.957 65.9193 32.354 67.9183 31.618 68.9113C31.567 68.9803 31.683 69.0453 31.735 68.9783ZM35.818 70.6624H35.676C35.232 70.0164 34.905 69.3154 34.585 68.5984C34.735 68.4174 34.869 68.2133 34.972 67.9923C35.263 68.8763 35.565 69.7704 35.818 70.6624ZM35.168 67.5004C35.179 67.4774 35.187 67.4464 35.195 67.4154C35.629 68.5084 35.956 69.6573 36.558 70.6583H36.17C35.878 69.6053 35.506 68.5473 35.171 67.5083C35.171 67.5033 35.168 67.5004 35.168 67.5004ZM32.278 69.7823C33.04 69.6653 33.78 69.3634 34.335 68.8614C34.614 69.4824 34.902 70.0964 35.272 70.6624C34.402 70.6674 33.532 70.6693 32.661 70.6733C32.66 70.6543 32.654 70.6383 32.642 70.6173C32.494 70.3493 32.369 70.0743 32.278 69.7823ZM32.291 70.6743C32.042 70.6743 31.791 70.6764 31.543 70.6764C31.456 70.3974 31.372 70.1164 31.292 69.8354C31.502 69.8454 31.72 69.8433 31.934 69.8243C32.021 70.1193 32.144 70.4033 32.291 70.6743ZM27.205 57.2253C26.606 56.3083 26.212 55.2593 25.896 54.1923C26.42 54.2113 26.934 54.3073 27.443 54.4103C27.532 54.4273 27.566 54.2973 27.482 54.2783C26.94 54.1723 26.405 54.0703 25.857 54.0583C25.727 53.6053 25.606 53.1473 25.489 52.6903C25.42 52.4213 25.245 52.2083 25.186 51.9363C25.126 51.6783 25.138 51.4093 25.201 51.1543C25.205 51.1433 25.209 51.1343 25.212 51.1233C25.413 50.4743 25.967 49.9303 26.566 49.5583C27.016 49.2833 27.572 49.1273 28.091 49.2583C28.961 49.4723 28.805 50.7463 28.705 51.3693C28.411 53.1893 27.24 54.8533 27.195 56.7233C27.19 56.8893 27.191 57.0603 27.205 57.2253ZM31.212 46.0273C30.764 50.3513 30.714 54.7133 30.316 59.0423C29.559 57.4223 28.837 55.7873 28.191 54.1423C28.245 53.9983 28.298 53.8543 28.349 53.7123C28.73 52.6763 29.857 50.1213 28.61 49.1623C27.654 48.4273 26.421 48.9493 25.625 49.8583C24.89 48.4043 24.115 46.9643 23.52 45.4453C23.793 45.0253 24.082 44.6133 24.446 44.2553C25.703 43.0173 27.202 42.0013 28.705 40.9993C28.701 41.0263 28.708 41.0563 28.722 41.0863C29.513 42.7303 30.398 44.3263 31.245 45.9403C31.225 45.9653 31.214 45.9923 31.212 46.0273ZM31.51 46.4533C31.66 46.7483 31.813 47.0443 31.962 47.3403V47.3473C31.802 51.9773 31.776 56.6473 31.378 61.2633C31.103 60.7013 30.828 60.1363 30.56 59.5703C30.59 59.5423 30.612 59.5053 30.616 59.4563C31.036 55.1313 31.084 50.7743 31.51 46.4533ZM27.666 55.9113C27.749 55.4713 27.878 55.0413 28.021 54.6203C29.354 57.9643 30.963 61.2483 32.594 64.4523C32.36 64.4913 32.129 64.5824 31.911 64.7204C31.385 65.0534 31.14 65.5853 31.032 66.1993C30.251 64.1323 29.548 62.0283 28.618 60.0213C28.666 59.5523 28.85 59.2783 28.449 58.7623C27.701 57.8023 27.42 57.1983 27.666 55.9113ZM30.95 66.9274V66.9314C30.924 67.4794 30.945 68.0543 30.924 68.5773C30.312 66.4733 29.753 64.3533 29.195 62.2353C29.806 63.7903 30.346 65.3734 30.95 66.9274ZM28.269 60.2173C28.269 60.2733 28.289 60.3143 28.319 60.3443C28.33 60.3473 28.34 60.3553 28.349 60.3613V60.3633C29.154 63.3883 29.935 66.4323 30.821 69.4393C30.808 69.4943 30.795 69.5434 30.776 69.5944C30.752 69.6714 30.808 69.7874 30.895 69.8024C30.906 69.8064 30.917 69.8064 30.929 69.8064C31.016 70.0964 31.104 70.3864 31.193 70.6764C30.839 70.6804 30.486 70.6804 30.136 70.6804C29.117 66.9054 28.412 63.0183 27.707 59.1703C28.027 59.3883 28.239 59.6863 28.265 60.1203C28.269 60.1543 28.269 60.1883 28.269 60.2173ZM32.728 63.9703C32.369 63.2583 32.01 62.5423 31.653 61.8243C31.664 61.8053 31.672 61.7843 31.674 61.7613C32.092 57.1923 32.13 52.5743 32.28 47.9873C32.382 48.1993 32.483 48.4123 32.583 48.6263C32.594 48.6513 32.611 48.6693 32.628 48.6843C32.79 50.3733 32.933 52.0663 33.041 53.7503C33.26 57.1553 32.806 60.5653 32.728 63.9703ZM32.302 47.2693C32.302 47.2663 32.3 47.2633 32.3 47.2613C32.289 47.2333 32.274 47.2103 32.259 47.1773C31.21 45.0753 30.031 43.0353 29.012 40.9163C28.993 40.8793 28.968 40.8543 28.938 40.8433C29.029 40.7813 29.118 40.7213 29.208 40.6623C29.208 40.6833 29.213 40.7053 29.225 40.7273C29.768 42.0013 30.413 43.2513 31.094 44.4773C31.52 45.2433 31.962 45.9973 32.403 46.7393C32.416 46.7583 32.429 46.7753 32.446 46.7863C32.475 47.1073 32.509 47.4243 32.539 47.7433C32.46 47.5833 32.38 47.4283 32.302 47.2693ZM29.466 40.4893L29.659 40.3573L30.316 39.9073C30.597 39.7123 30.876 39.5143 31.147 39.3113C31.407 40.9723 31.601 42.6513 31.53 44.3313C31.53 44.4033 31.53 44.4783 31.523 44.5503C31.482 44.4783 31.441 44.4033 31.4 44.3313C31.344 44.2303 31.292 44.1303 31.233 44.0313C31.233 44.0503 31.233 44.0613 31.233 44.0613L30.698 43.0293C30.348 42.3603 30.017 41.6833 29.712 40.9993L29.707 40.9863L29.466 40.4893ZM31.798 45.0333C31.82 45.0103 31.835 44.9773 31.839 44.9333C31.991 42.9763 31.761 41.0123 31.454 39.0833C31.543 39.0183 31.63 38.9503 31.72 38.8823C31.809 40.1103 31.904 41.3323 32.021 42.5373C32.129 43.6943 32.251 44.8503 32.367 46.0113C32.174 45.6883 31.984 45.3613 31.798 45.0333ZM22.981 46.2793C22.981 46.2793 22.981 46.2773 22.979 46.2773C23.087 46.1173 23.193 45.9583 23.295 45.7953C23.892 47.2583 24.637 48.6503 25.344 50.0623C25.363 50.0943 25.385 50.1163 25.407 50.1303C25.273 50.3143 25.156 50.5083 25.063 50.7113C24.43 49.2033 23.683 47.7523 22.981 46.2793ZM25.077 52.4523C25.144 52.7133 25.211 52.9743 25.282 53.2403C24.546 54.2153 24.352 56.0003 24.638 57.1203C24.66 57.2033 24.791 57.1683 24.768 57.0843C24.504 56.0493 24.665 54.3623 25.328 53.4083C25.81 55.2123 26.412 57.0473 27.71 58.4033C27.71 58.4063 27.712 58.4103 27.712 58.4103C27.866 58.6113 27.982 58.8213 28.067 59.0413C27.937 58.9313 27.788 58.8383 27.625 58.7623C27.571 58.7333 27.513 58.7083 27.454 58.6823C27.253 58.6003 27.041 58.5323 26.826 58.4823H26.824C26.782 58.4663 26.737 58.4563 26.696 58.4483C26.484 58.3963 26.272 58.3593 26.071 58.3223C24.857 58.0953 24.036 57.6563 23.675 56.3873C23.268 54.9603 23.515 53.0133 25.077 52.4523ZM26.468 61.6693C26.135 61.8763 25.826 62.0183 25.597 62.2443C25.575 60.8563 25.015 59.4933 24.671 58.1513C25.258 58.4093 25.965 58.5433 26.601 58.7193C26.61 58.7363 26.627 58.7513 26.646 58.7663C27.703 59.4753 27.483 61.0463 26.468 61.6693ZM23.218 61.0623C21.845 60.2603 22.333 59.1913 22.641 57.9943C22.743 57.5963 22.183 57.0383 22.187 56.5803C22.206 54.6763 24.095 52.6453 22.068 51.7063C22.832 51.7233 23.559 52.0993 24.078 52.6753C22.974 53.7133 23.027 55.6303 23.533 57.0613C23.674 57.4553 23.94 57.7383 24.277 57.9503C24.277 57.9653 24.281 57.9763 24.285 57.9953C24.623 59.4313 25.276 60.8993 25.263 62.3963C24.746 61.7763 23.909 61.4653 23.218 61.0623ZM25.594 63.0243V63.0203C25.596 63.0033 25.596 62.9893 25.594 62.9733C25.744 62.2693 26.431 62.1443 26.94 61.7553C27.275 61.5083 27.459 61.1243 27.589 60.7373C27.602 60.6953 27.617 60.6523 27.628 60.6053C28.248 63.9823 28.899 67.3754 29.782 70.6814C28.93 70.6864 28.08 70.6864 27.23 70.6904C27.625 68.0364 25.719 65.6573 25.594 63.0243ZM46.956 70.9704C47.795 74.6074 48.315 78.3374 48.743 82.0424C49.178 85.7754 49.728 90.3024 47.976 93.7874C47.976 93.7914 47.976 93.7913 47.976 93.7953C44.826 99.0433 37.44 99.7123 31.916 99.6583C30.157 99.6393 28.418 99.5824 26.702 99.1794C23.793 98.4954 19.851 97.0933 18.3 94.2803C18.3 94.2783 18.3 94.2784 18.3 94.2784C18.307 94.2394 18.303 94.2003 18.279 94.1593C16.34 90.7083 16.864 86.1663 17.28 82.3803C17.693 78.5923 18.239 74.7613 19.091 71.0443C21.671 71.0443 24.254 71.0403 26.831 71.0323C26.943 71.0323 27.054 71.0294 27.166 71.0294C28.077 71.0254 28.988 71.0213 29.899 71.0213C29.976 71.0213 30.05 71.0213 30.126 71.0173C31.919 71.0113 33.708 71.0044 35.498 70.9984H35.811C39.526 70.9854 43.242 70.9724 46.956 70.9704ZM48.591 53.4973C49.275 52.7503 50.558 52.8943 51.438 53.1183C52.505 53.3943 54.129 55.1913 52.31 55.6023C51.113 55.8733 50.406 56.6263 50.175 57.6593C50.033 57.2953 49.874 56.9303 49.696 56.5793C49.558 55.6843 49.402 54.8213 48.964 54.0663C50.11 54.0723 51.589 54.1313 52.222 55.2533C52.263 55.3293 52.382 55.2603 52.337 55.1863C51.671 53.9993 50.112 53.9353 48.904 53.9313C48.896 53.9313 48.885 53.9353 48.882 53.9373C48.792 53.7933 48.689 53.6523 48.571 53.5163L48.591 53.4973ZM46.024 53.6713C45.977 53.6503 44.253 52.1043 44.99 52.0683C45.354 52.0523 45.76 52.2163 46.098 52.3323C46.727 52.5403 47.332 52.8093 47.912 53.1243C47.975 53.1613 48.039 53.1953 48.104 53.2323C48.139 53.2513 48.184 53.2653 48.217 53.2923C48.242 53.3143 48.252 53.3443 48.275 53.3733C48.359 53.4853 48.456 53.5863 48.543 53.6933C48.611 53.7793 48.673 53.8643 48.732 53.9543C48.89 54.1893 49.02 54.4483 49.123 54.7133C49.311 55.1963 49.415 55.7053 49.499 56.2153C49.304 55.8693 49.084 55.5383 48.839 55.2323C48.11 54.3233 47.055 54.1223 46.024 53.6713ZM47.261 54.5353C47.292 54.5503 47.326 54.5583 47.356 54.5723C46.887 58.1503 44.336 61.3444 42.147 64.0714C40.52 66.0974 39.111 68.5153 37.203 70.2943C37.251 69.8513 37.318 69.4123 37.391 68.9773L37.393 68.9734C40.672 64.2924 45.935 60.3353 47.261 54.5353ZM44.702 28.6933C43.696 27.0413 45.994 25.6593 47.234 25.2823C48.222 24.9843 49.214 25.1663 50.096 25.6763C50.491 25.9053 50.855 26.1823 51.204 26.4743C51.383 26.6243 51.556 26.7773 51.728 26.9323C51.814 27.0113 51.899 27.0903 51.983 27.1683C52.067 27.2413 52.167 27.3043 52.249 27.3693C52.335 27.4403 52.405 27.5263 52.495 27.5943C52.588 27.6643 52.683 27.7243 52.783 27.7773C52.865 27.8233 53.008 27.9243 53.102 27.9293C51.494 27.8513 49.857 27.7863 48.31 28.2953C48.226 28.3223 48.261 28.4533 48.343 28.4253C50.019 27.8743 51.804 28.0033 53.546 28.0833C54.109 28.2603 54.703 28.3633 55.131 28.4983C56.957 29.0653 59.022 29.7213 60.453 31.0353C60.519 31.0923 60.615 30.9973 60.554 30.9373C59.479 29.9543 58.082 29.4153 56.738 28.9103C56.203 28.7103 55.66 28.5203 55.113 28.3533C57.774 28.2443 60.355 26.5343 63.072 27.4153C63.158 27.4423 63.191 27.3113 63.109 27.2853C62.317 27.0283 61.48 26.9853 60.655 27.0793C59.553 27.2043 58.494 27.5453 57.426 27.8213C56.894 27.9573 56.359 28.0813 55.814 28.1543C55.546 28.1903 55.276 28.2133 55.004 28.2193C54.887 28.2213 54.767 28.2263 54.654 28.2163C54.532 28.2053 54.427 28.1533 54.308 28.1243C54.141 28.0823 53.973 28.0423 53.806 27.9993C53.748 27.9863 53.689 27.9703 53.631 27.9543C53.162 27.8213 52.701 27.6403 52.4 27.3313C53.189 26.7163 52.85 25.5943 53.52 24.8653C54.541 23.7603 56.592 23.7113 57.935 23.9393C59.178 24.1503 60.263 24.8173 61.368 25.3803C62.056 25.7333 62.77 26.0233 63.435 26.4233C65.172 27.4723 64.146 28.9563 62.595 29.5603C61.14 30.1253 60.936 31.2233 60.936 32.5133C59.299 29.5603 54.228 30.1323 51.406 30.2293C49.362 30.2983 45.953 30.7553 44.702 28.6933ZM36.151 64.3693H36.153V64.3653C36.161 64.3463 36.168 64.3264 36.175 64.3054C36.175 64.3014 36.175 64.3014 36.175 64.3014C36.766 62.6424 37.57 61.0273 38.256 59.4883C39.943 55.7293 41.755 52.0273 43.544 48.3173C45.287 44.6993 47.037 41.0833 48.619 37.3913C49.499 35.3383 50.756 32.9243 50.836 30.6323C51.027 30.6243 51.219 30.6133 51.412 30.6023C50.869 33.0573 49.759 35.4273 48.783 37.7263C47.217 41.4153 45.567 45.0733 43.988 48.7573C41.251 55.1383 38.155 61.9043 37.059 68.8563H37.057C37.048 68.9013 37.04 68.9463 37.038 68.9913V68.9943C36.96 69.4833 36.892 69.9804 36.839 70.4734C36.218 69.4344 35.893 68.2404 35.438 67.1114C35.577 66.1914 35.831 65.2763 36.151 64.3693ZM35.837 64.2563V64.2583C35.569 65.0153 35.345 65.7793 35.197 66.5453L34.972 66.1944C34.855 66.0044 34.732 65.8063 34.676 65.5863C34.661 65.5353 34.646 65.4933 34.625 65.4503V65.4483L34.624 65.4424C34.561 65.3084 34.468 65.2014 34.363 65.0824C34.248 64.9514 34.121 64.8363 33.976 64.7393C33.838 64.6483 33.686 64.5723 33.53 64.5183C33.493 64.5043 33.057 64.4053 33.057 64.4233C33.096 61.0053 33.5 57.6023 33.397 54.1843C33.28 50.3183 32.718 46.3903 32.357 42.5373C32.236 41.2553 32.14 39.9573 32.045 38.6513C32.168 38.5703 32.316 38.4763 32.472 38.3643V38.3673C32.506 38.7143 32.539 39.0583 32.58 39.4013C32.965 42.7493 33.694 46.0473 34.127 49.3883C34.387 51.4123 34.583 53.4433 34.781 55.4793V55.4813C34.781 55.5473 34.781 55.6153 34.781 55.6783C34.781 55.7113 34.795 55.7413 34.807 55.7633C35.084 58.6073 35.364 61.4453 35.837 64.2563ZM36.548 43.4573C36.098 46.1403 35.666 48.8243 35.276 51.5173C35.173 52.1963 35.046 52.8953 34.945 53.5943C34.785 52.0083 34.616 50.4233 34.399 48.8433C34.397 48.8243 34.395 48.8033 34.391 48.7843C34.402 48.7673 34.413 48.7513 34.417 48.7293C35.641 44.6853 36.277 40.4143 37.039 36.2643C37.601 33.1823 38.289 30.0703 38.668 26.9603C39.04 26.7653 39.397 26.5453 39.732 26.2963C38.508 31.9823 37.509 37.7213 36.548 43.4573ZM41.186 24.2153C40.863 24.7953 40.45 25.2823 39.977 25.6923C39.932 25.7353 39.886 25.7743 39.835 25.8113C38.891 26.5923 37.727 27.0863 36.529 27.4153C35.643 27.6573 34.755 27.8733 33.858 28.0493C33.639 28.0933 33.367 28.1533 33.067 28.2013C33.066 28.2013 33.066 28.2013 33.066 28.2013C33.021 28.2123 32.979 28.2213 32.936 28.2253H32.932C32.203 28.3453 31.363 28.3983 30.844 28.0583C32.018 26.6743 32.962 24.9993 32.832 23.2303C32.795 22.6933 32.49 22.2063 32.012 22.0113C32.669 21.7243 33.249 21.3283 33.888 20.9623C34.728 20.4883 36.038 20.5603 36.971 20.5403C39.191 20.4953 42.876 21.2153 41.186 24.2153ZM40.978 15.4143C40.598 17.1433 40.364 18.9973 40.394 20.7763C40.129 20.6543 39.847 20.5583 39.561 20.4793C40.308 17.5393 39.915 13.1913 42.328 11.0343C42.529 11.2263 42.745 11.4023 42.975 11.5683C41.636 12.0943 41.243 14.2173 40.978 15.4143ZM65.099 23.2993C64.583 23.9733 64.509 24.8213 64.178 25.5783C63.691 22.0463 60.797 20.0753 57.655 18.8093C55.767 18.0513 53.811 17.4763 51.972 16.5903C49.998 15.6373 48.414 14.0813 46.445 13.0823C45.296 12.4993 44.154 11.9343 43.094 11.1943C42.134 10.5223 41.591 9.57435 41.056 8.56535C40.297 7.15435 39.631 5.36135 38.311 4.35735C38.091 4.19535 37.872 4.02735 37.616 3.93035C37.467 3.86235 37.31 3.80735 37.151 3.77235C37.299 3.77235 37.931 3.40435 38.013 3.37635C38.977 3.06235 39.88 3.91735 40.468 4.55535C41.137 5.28535 41.639 6.14435 42.123 7.00235C42.327 7.36835 42.532 7.73735 42.746 8.09635C42.853 8.28135 42.963 8.46035 43.078 8.63835C43.156 8.76335 43.238 8.88535 43.326 9.00135C43.407 9.11535 44.536 10.5913 44.566 10.6003C42.461 10.0873 42.238 6.98835 40.163 6.24635C40.077 6.21835 40.042 6.34835 40.124 6.37835C42.23 7.13135 42.397 10.3233 44.648 10.7583C44.661 10.7623 44.673 10.7583 44.685 10.7563C45.039 11.2223 45.438 11.6673 45.864 12.0923C45.868 12.1163 45.881 12.1403 45.911 12.1513C45.92 12.1543 45.924 12.1573 45.932 12.1573C47.813 14.0103 50.262 15.4803 52.399 16.4703C52.477 16.5083 52.544 16.3913 52.465 16.3543C50.401 15.3973 48.054 13.9993 46.207 12.2383C48.403 12.8323 51.085 12.4023 53.289 12.3013C56.054 12.1733 59.239 11.6643 61.96 12.3483C62.042 12.3693 62.081 12.2363 61.994 12.2173C59.557 11.6053 56.755 12.0033 54.278 12.1193C52.703 12.1943 51.124 12.2713 49.545 12.2963C48.395 12.3163 47.116 12.3793 46.001 12.0393C45.651 11.6963 45.324 11.3353 45.022 10.9643C46.395 10.7523 47.459 9.77435 48.518 8.94535C50.177 7.64735 51.693 6.23035 53.603 5.29635C53.682 5.25535 53.614 5.13835 53.536 5.17635C52.037 5.91135 50.768 6.91635 49.491 7.97835C48.18 9.07035 46.688 10.6013 44.933 10.8453C44.652 10.5043 44.401 10.1493 44.178 9.78335C46.714 8.27735 46.383 4.10935 49.492 3.29135C49.578 3.27035 49.541 3.13835 49.459 3.16135C46.316 3.98835 46.647 8.16235 44.106 9.67035C43.939 9.38835 43.783 9.10135 43.653 8.80535C44.824 7.02535 44.426 4.62135 46.282 3.22135C48.581 1.49235 52.99 3.19635 55.32 4.18535C60.687 6.46635 64.486 12.4983 64.659 18.2203C63.659 17.3723 62.376 17.0063 61.212 16.4073C60.189 15.8853 59.203 15.2993 58.19 14.7603C56.497 13.8563 54.183 12.7523 52.384 13.9563C52.371 13.9643 52.361 13.9723 52.347 13.9803C52.308 14.0073 52.285 14.0423 52.275 14.0783C52.271 14.0893 52.271 14.1013 52.271 14.1153C52.273 14.1213 52.273 14.1293 52.273 14.1363C52.275 14.1473 52.275 14.1563 52.279 14.1663C52.301 14.2293 52.353 14.2853 52.435 14.2943C52.438 14.2943 52.442 14.2943 52.446 14.2963C54.558 14.5763 56.448 15.2553 58.311 16.2883C59.804 17.1183 61.244 18.1633 62.837 18.8003C64.072 19.2903 66.516 19.7623 66.61 21.4123C66.674 22.4863 65.603 22.6443 65.099 23.2993Z" fill="currentColor"/>
<path d="M34.642 65.4764C34.636 65.4654 34.634 65.4564 34.626 65.4514C34.647 65.4664 34.654 65.4884 34.658 65.5154C34.654 65.5024 34.65 65.4884 34.642 65.4764Z" fill="currentColor"/>
</svg>
