<svg viewBox="0 0 80 46" fill="none" xmlns="http://www.w3.org/2000/svg">
  <path
    d="M79 9.16406C75.5615 9.16406 73.8926 7.20361 71.96 4.93359C69.9917 2.62109 67.7603 0 63.3975 0C59.0352 0 56.8037 2.62109 54.835 4.93359C52.9023 7.20361 51.2334 9.16406 47.7944 9.16406C44.3564 9.16406 42.6875 7.20361 40.7554 4.93359C38.7871 2.62109 36.5562 0 32.1943 0C27.832 0 25.6011 2.62109 23.6323 4.93408C21.7007 7.20361 20.0322 9.16406 16.5942 9.16406C13.1582 9.16406 11.4902 7.20361 9.55908 4.93408C7.59131 2.62158 5.36084 0 1 0C0.447754 0 0 0.447754 0 1C0 1.55225 0.447754 2 1 2C4.43652 2 6.10449 3.96045 8.03564 6.22998C10.0034 8.54297 12.2339 11.1641 16.5942 11.1641C20.9561 11.1641 23.187 8.54297 25.1553 6.23047C27.0874 3.96045 28.7563 2 32.1943 2C35.6323 2 37.3008 3.96045 39.2324 6.22998C41.2012 8.54297 43.4321 11.1641 47.7944 11.1641C52.1572 11.1641 54.3887 8.54297 56.3574 6.22998C58.29 3.96045 59.959 2 63.3975 2C66.8359 2 68.5049 3.96045 70.4375 6.23047C72.4058 8.54297 74.6372 11.1641 79 11.1641C79.5522 11.1641 80 10.7163 80 10.1641C80 9.61182 79.5522 9.16406 79 9.16406Z"
    fill="currentColor"
  />
  <path
    d="M79 26.373C75.5615 26.373 73.8926 24.4126 71.96 22.1426C69.9917 19.8301 67.7603 17.209 63.3975 17.209C59.0352 17.209 56.8037 19.8301 54.835 22.1426C52.9023 24.4126 51.2334 26.373 47.7944 26.373C44.3564 26.373 42.6875 24.4126 40.7554 22.1426C38.7871 19.8301 36.5562 17.209 32.1943 17.209C27.832 17.209 25.6011 19.8301 23.6323 22.1431C21.7007 24.4126 20.0322 26.373 16.5942 26.373C13.1582 26.373 11.4902 24.4126 9.55908 22.1431C7.59131 19.8306 5.36084 17.209 1 17.209C0.447754 17.209 0 17.6567 0 18.209C0 18.7612 0.447754 19.209 1 19.209C4.43652 19.209 6.10449 21.1694 8.03564 23.439C10.0034 25.752 12.2339 28.373 16.5942 28.373C20.9561 28.373 23.187 25.752 25.1553 23.4395C27.0874 21.1694 28.7563 19.209 32.1943 19.209C35.6323 19.209 37.3008 21.1694 39.2324 23.439C41.2012 25.752 43.4321 28.373 47.7944 28.373C52.1572 28.373 54.3887 25.752 56.3574 23.439C58.29 21.1694 59.959 19.209 63.3975 19.209C66.8359 19.209 68.5049 21.1694 70.4375 23.4395C72.4058 25.752 74.6372 28.373 79 28.373C79.5522 28.373 80 27.9253 80 27.373C80 26.8208 79.5522 26.373 79 26.373Z"
    fill="currentColor"
  />
  <path
    d="M79 43.582C75.5615 43.582 73.8926 41.6216 71.96 39.3516C69.9917 37.0391 67.7603 34.418 63.3975 34.418C59.0352 34.418 56.8037 37.0391 54.835 39.3516C52.9023 41.6216 51.2334 43.582 47.7944 43.582C44.3564 43.582 42.6875 41.6216 40.7554 39.3516C38.7871 37.0391 36.5562 34.418 32.1943 34.418C27.832 34.418 25.6011 37.0391 23.6323 39.3521C21.7007 41.6216 20.0322 43.582 16.5942 43.582C13.1582 43.582 11.4902 41.6216 9.55908 39.3521C7.59131 37.0396 5.36084 34.418 1 34.418C0.447754 34.418 0 34.8657 0 35.418C0 35.9702 0.447754 36.418 1 36.418C4.43652 36.418 6.10449 38.3784 8.03564 40.6479C10.0034 42.9609 12.2339 45.582 16.5942 45.582C20.9561 45.582 23.187 42.9609 25.1553 40.6484C27.0874 38.3784 28.7563 36.418 32.1943 36.418C35.6323 36.418 37.3008 38.3784 39.2324 40.6479C41.2012 42.9609 43.4321 45.582 47.7944 45.582C52.1572 45.582 54.3887 42.9609 56.3574 40.6479C58.29 38.3784 59.959 36.418 63.3975 36.418C66.8359 36.418 68.5049 38.3784 70.4375 40.6484C72.4058 42.9609 74.6372 45.582 79 45.582C79.5522 45.582 80 45.1343 80 44.582C80 44.0298 79.5522 43.582 79 43.582Z"
    fill="currentColor"
  />
</svg>
