<svg
  xmlns="http://www.w3.org/2000/svg"
  xmlns:xlink="http://www.w3.org/1999/xlink"
  version="1.1"
  x="0px"
  y="0px"
  viewBox="0 0 64 80"
  style="enable-background:new 0 0 64 64;"
  xml:space="preserve"
><path
    d="M46,24V7c0-2.757-2.243-5-5-5H11C8.243,2,6,4.243,6,7v17c0,2.757,2.243,5,5,5h10.382l-2,4H16v2h4h12h4v-2h-3.382l-2-4H40  v14.5c0,1.93,1.57,3.5,3.5,3.5s3.5-1.57,3.5-3.5c0-0.827,0.673-1.5,1.5-1.5s1.5,0.673,1.5,1.5v3.601c-2.279,0.465-4,2.484-4,4.899v5  c0,2.757,2.243,5,5,5s5-2.243,5-5v-5c0-2.414-1.721-4.434-4-4.899V43.5c0-1.93-1.57-3.5-3.5-3.5S45,41.57,45,43.5  c0,0.827-0.673,1.5-1.5,1.5S42,44.327,42,43.5V28.899C44.279,28.434,46,26.414,46,24z M54,52v5c0,1.654-1.346,3-3,3s-3-1.346-3-3v-5  c0-1.654,1.346-3,3-3S54,50.346,54,52z M44,7v15H34V4h7C42.654,4,44,5.346,44,7z M11,4h21v18H8V7C8,5.346,9.346,4,11,4z M8,24h36  c0,1.654-1.346,3-3,3H11C9.346,27,8,25.654,8,24z M30.382,33h-8.764l2-4h4.764L30.382,33z"
  /><path
    d="M3,59h34c0.553,0,1-0.447,1-1V42c0-0.553-0.447-1-1-1H3c-0.553,0-1,0.447-1,1v16C2,58.553,2.447,59,3,59z M4,43h32v14H4V43z  "
  /><rect x="6" y="45" width="4" height="2" /><rect x="12" y="45" width="4" height="2" /><rect
    x="18"
    y="45"
    width="4"
    height="2"
  /><rect x="24" y="45" width="4" height="2" /><rect x="30" y="45" width="4" height="2" /><rect
    x="9"
    y="49"
    width="4"
    height="2"
  /><rect x="15" y="49" width="4" height="2" /><rect x="21" y="49" width="4" height="2" /><rect
    x="27"
    y="49"
    width="4"
    height="2"
  /><rect x="6" y="53" width="4" height="2" /><rect x="12" y="53" width="4" height="2" /><rect
    x="18"
    y="53"
    width="4"
    height="2"
  /><rect x="24" y="53" width="4" height="2" /><rect x="30" y="53" width="4" height="2" /><rect
    x="36"
    y="7"
    width="6"
    height="2"
  /><rect x="36" y="11" width="6" height="2" /><rect x="36" y="15" width="6" height="2" /><path
    d="M14.293,17.707l1.414-1.414L12.414,13l3.293-3.293l-1.414-1.414l-4,4c-0.391,0.391-0.391,1.023,0,1.414L14.293,17.707z"
  /><path
    d="M25.707,17.707l4-4c0.391-0.391,0.391-1.023,0-1.414l-4-4l-1.414,1.414L27.586,13l-3.293,3.293L25.707,17.707z"
  /><rect
    x="14"
    y="11"
    transform="matrix(0.3848 -0.923 0.923 0.3848 1.5352 26.3034)"
    width="13"
    height="2"
  /><rect x="50" y="51" width="2" height="3" /><path
    d="M59,24h-1v-1c0-0.553-0.447-1-1-1h-8c-0.553,0-1,0.447-1,1v13c0,0.553,0.447,1,1,1h8c0.553,0,1-0.447,1-1v-2h1  c1.654,0,3-1.346,3-3v-4C62,25.346,60.654,24,59,24z M56,35h-6V24h6V35z M60,31c0,0.552-0.448,1-1,1h-1v-6h1c0.552,0,1,0.448,1,1V31  z"
  /><text
    x="0"
    y="79"
    fill="currentColor"
    font-size="5px"
    font-weight="bold"
    font-family="'Helvetica Neue', Helvetica, Arial-Unicode, Arial, Sans-serif"
  >
    Created by Becris
  </text><text
    x="0"
    y="84"
    fill="currentColor"
    font-size="5px"
    font-weight="bold"
    font-family="'Helvetica Neue', Helvetica, Arial-Unicode, Arial, Sans-serif"
  >
    from the Noun Project
  </text></svg>
