<svg fill="currentColor" xmlns="http://www.w3.org/2000/svg" xmlns:xlink="http://www.w3.org/1999/xlink" version="1.1" x="0px" y="0px" viewBox="0 0 100 90.589" enable-background="new 0 0 100 90.589" xml:space="preserve"><g><path d="M48.665,64.37c-8.934-2.619-16.176-5.837-25.56-2.961c-0.173,0.046-0.309,0.228-0.333,0.391   c-1.034,6.48,10.062,9.801,14.477,11.08c4.536,1.319,9.178,2.235,13.896,2.45c2.474,0.103,5.967,0.208,7.933-1.624   c0.006-0.003,0.021-0.016,0.027-0.016c0.063-0.045,0.117-0.111,0.16-0.205C62.005,67.482,52.643,65.531,48.665,64.37z    M58.364,72.956c-3.097,2.716-9.787,1.243-13.346,0.671c-6.015-0.968-12.293-2.749-17.474-6.042   c-1.742-1.106-3.629-2.691-3.823-4.878c-0.257-2.821,12.94-1.073,14.495-0.702c3.514,0.854,6.826,2.348,10.279,3.394   C51.642,66.333,60.484,68.017,58.364,72.956z"></path><path d="M27.057,73.364c-1.878-1.004-13.554-6.642-14.679-2.023c-1.161,4.793,7.355,8.238,10.561,9.584   c2.939,1.242,11.619,4.89,14.114,1.128c0.003-0.016,0.009-0.019,0.009-0.024l0.006-0.006c0.015-0.027,0.033-0.052,0.045-0.085   l-0.003-0.006C38.564,79.058,28.766,74.265,27.057,73.364z M36.19,81.454c-1.954,2.772-9.188-0.118-11.468-0.938   c-3.765-1.373-9.438-3.617-11.238-7.533c-1.288-2.804,3.811-2.081,5.111-1.821c2.564,0.506,5.026,1.643,7.355,2.795   C26.924,74.44,36.829,79.645,36.19,81.454z"></path><path d="M63.642,44.697c-4.001-0.429-17.087-0.771-16.688,6.179c0.356,6.118,11.353,7.775,15.787,8.42   c5.358,0.792,16.385,1.826,19.303-4.295c0.043-0.091,0.049-0.169,0.043-0.244c-0.003-0.007,0.003-0.007,0-0.013   c-0.003-0.024,0-0.052-0.006-0.075C81.662,47.213,69.13,45.284,63.642,44.697z M64.506,58.466   c-5.032-0.493-12.861-1.618-16.038-6.114c-1.987-2.798,1.938-5.117,4.078-5.861c3.417-1.201,7.388-1.065,10.923-0.771   c4.963,0.426,17.096,2.329,17.573,8.97C78.49,59.74,69.024,58.899,64.506,58.466z"></path><path d="M33.438,26.564c-0.012-0.009-0.024-0.015-0.04-0.015c-0.051-0.033-0.094-0.058-0.154-0.066   c-0.003-0.009-0.006,0.003-0.006,0.003c-0.033-0.018-0.061-0.021-0.082-0.012c-0.037-0.015-0.063-0.018-0.091-0.012   c-6.16,0.414-6.369,9.974-7.482,14.386c-0.774,3.051-4.899,11.559,0.805,12.303c5.676,0.735,9.517-6.356,10.748-10.73   C38.598,37.285,38.18,29.915,33.438,26.564z M29.132,51.542c-7.512,3.623-3.314-7.846-2.519-10.525   c1.131-3.889,1.116-12.919,6.345-13.497C40.458,33.054,36.665,47.903,29.132,51.542z"></path><path d="M52.268,14.87c-3.222,5.065-6.473,12.529-4.93,18.653c1.772,7.035,8.931-0.423,11.199-3.003   c4.606-5.262,9.499-14.482,3.766-20.62C58.767,5.552,54.055,12.057,52.268,14.87z M58.82,28.515   c-1.69,2.244-3.723,4.288-6.026,5.903c-2.526,1.766-4.144,0.759-4.676-2.138c-0.862-4.739,1.515-10.198,3.59-14.329   c1.137-2.274,6.326-11.453,9.698-7.515c0.019,0.033,0.046,0.055,0.066,0.085C66.521,15.931,62.525,23.552,58.82,28.515z"></path><path d="M81.232,23.458c-2.821,2.145-5.902,3.844-8.894,5.737c-1.328,0.84-4.8,2.897-4.37,5.008   c0.469,2.292,3.245,3.196,5.241,3.689c4.476,1.116,8.836,1.071,13.206-0.463c7.222-2.528,11.335-9.705,10.128-17.141   c-0.009-0.067-0.03-0.124-0.061-0.172c-0.006-0.019-0.015-0.04-0.026-0.055c0-0.018-0.007-0.021-0.016-0.039   C92.728,13.605,84.968,20.616,81.232,23.458z M86.967,36.075c-3.127,1.509-6.705,1.775-10.116,1.47   c-2.722-0.248-10.388-1.951-6.405-5.673c3.085-2.885,7.328-4.588,10.742-7.077c3.369-2.45,10.911-9.898,14.338-4.279   C96.58,27.362,93.142,33.108,86.967,36.075z"></path><path d="M99.43,21.795c-1.386-7.037-4.231-13.966-1.146-21.074c0.275-0.635-0.695-1.022-0.943-0.422   c-5.238,8.77-21.351,6.581-29.87,6.263c-3.874-0.146-7.826-0.413-11.68,0.1c-6.417,0.85-12.708,3.762-18.248,6.943   c-11.25,6.457-20.092,16.633-26.74,27.611c-1.639,2.709-3.269,5.429-4.754,8.229C4.6,52.188,3.287,55,2.259,57.922   c-1.028,2.918-1.754,5.939-2.072,9.018c-0.094,0.917-0.154,1.839-0.172,2.762c-0.012,0.475-0.012,0.943,0,1.418   c0,0.327-0.036,0.653,0.003,0.983c0.012,0.108,0.012,0.284,0.042,0.39c0.048,0.148,0.242,0.212,0.278,0.309   c0.003,0.006,0.012,0.015,0.021,0.018c5.927,3.539,9.998,9.242,15.526,13.289c4.727,3.478,10.959,4.926,16.766,4.363   c5.97-0.59,11.344-4.666,16.597-7.216c7.453-3.599,15.775-4.69,22.842-9.154c12.275-7.732,21.205-22.575,25.996-35.906   C100.01,32.851,100.533,27.362,99.43,21.795z M98.534,32.63C96.042,47.12,85.718,60.97,75.012,70.505   c-6.338,5.632-14.286,7.292-22.03,10.053c-6.122,2.187-11.387,6.215-17.544,8.253c-7.548,2.498-15.853-0.774-21.611-5.652   c-4.228-3.58-7.657-7.851-12.342-10.848c2.338-1.693,4.809-3.26,7.328-4.763c0.04,0.03,0.103,0.039,0.169,0.027   c6.753-1.86,12.687,2.187,18.281,5.413c5.903,3.405,12.438,4.569,18.967,6.163c0.263,0.061,0.33-0.348,0.07-0.414   c-7.703-1.878-14.688-3.687-21.572-7.703c-4.648-2.706-9.535-5.144-14.921-4.079c3.768-2.235,7.621-4.361,11.292-6.642   c2.168-1.346,4.315-2.688,6.484-4.062c8.537-2.582,16.881,1.827,25.228,4.863c8.471,3.066,17.132,3.971,25.561,0.457   c0.242-0.101,0.094-0.49-0.148-0.391c-10.826,4.506-21.232,1.201-31.624-2.906c-6.021-2.377-11.931-4.104-17.852-2.749   c4.615-2.915,9.206-5.857,13.769-8.86c2.7-1.782,5.395-3.6,8.086-5.45c13.373-4.352,30.212,8.443,42.094-2.928   c0.19-0.181-0.055-0.52-0.248-0.33c-11.516,11.015-27.629-0.717-40.835,2.543c4.367-3.021,8.664-6.136,12.913-9.317   c4.083-3.061,8.117-6.185,12.097-9.381c1.99-1.6,3.992-3.194,5.937-4.848c1.796-1.527,3.825-2.831,5.643-4.373   c1.691-1.443,3.258-3.038,4.546-4.855c0.154-0.221-0.17-0.485-0.327-0.265c-1.557,2.187-3.522,4.025-5.685,5.595   c-2.652,1.923-5.528,3.644-8.032,5.719c-1.346,1.116-2.713,2.202-4.077,3.29c-1.729,1.373-3.469,2.74-5.217,4.089   c-0.853,0.662-1.712,1.318-2.567,1.969c-0.753,0.575-1.696,1.615-2.586,1.951c1.413-2.531,2.344-5.347,3.394-8.026   c1.545-3.983,3.402-9.765,7.751-11.431c0.248-0.094,0.1-0.484-0.151-0.39c-3.103,1.197-4.721,4.333-6.088,7.167   c-2.104,4.337-3.199,9.26-5.788,13.349c-5.298,3.946-10.679,7.79-16.149,11.516c-0.021,0.009-0.051,0.027-0.073,0.049   c-0.236,0.127-0.462,0.272-0.692,0.417c-0.042,0.03-0.061,0.07-0.084,0.106c-1.11,0.753-2.223,1.5-3.345,2.247   c-1.524,1.022-3.061,2.021-4.591,3.012c7.037-10.996-4.476-29.598,10.14-36.586c0.242-0.118,0.09-0.508-0.148-0.39   c-14.743,7.049-3.451,25.975-10.367,37.02c-0.079,0.127-0.351,0.438-0.496,0.529c-4.536,2.948-9.118,5.836-13.708,8.709   c-0.015,0.006-0.024,0.009-0.036,0.021c-0.167,0.105-0.345,0.215-0.526,0.336c-0.517,0.32-1.034,0.646-1.555,0.968   c-1.161,0.729-2.35,1.439-3.547,2.138c4.219-9.309-2.573-19.845,2.138-29.269c0.115-0.239-0.26-0.405-0.384-0.172   c-4.796,9.605,2.322,20.419-2.396,29.813c-5.564,3.263-11.319,6.399-16.509,10.14C0.747,59.011,7.331,48.354,13.872,38.265   c7.932-12.251,19.164-22.494,32.797-27.94c9.947-3.965,19.706-2.522,30.104-2.508C82.98,7.823,91.548,7.713,96.396,3.08   C93.979,12.807,100.249,22.72,98.534,32.63z"></path><path d="M23.307,57.719c0.173-0.111,0.351-0.221,0.518-0.326c-0.151,0.075-0.296,0.157-0.445,0.239   C23.344,57.659,23.319,57.68,23.307,57.719z"></path></g></svg>