<svg xmlns="http://www.w3.org/2000/svg" xmlns:xlink="http://www.w3.org/1999/xlink" version="1.1" x="0px" y="0px" viewBox="0 0 64 80" style="enable-background:new 0 0 64 64;" xml:space="preserve"><path d="M57,2H7C4.243,2,2,4.243,2,7v52c0,1.654,1.346,3,3,3h54c1.654,0,3-1.346,3-3V7C62,4.243,59.757,2,57,2z M7,4h50  c1.654,0,3,1.346,3,3v33H20v-2v-2c0-1.654-1.346-3-3-3H5c-0.352,0-0.686,0.072-1,0.184V7C4,5.346,5.346,4,7,4z M20,56v-7h3.461  l-3.111,7H20z M18,37H4v-1c0-0.552,0.448-1,1-1h12c0.552,0,1,0.448,1,1V37z M4,39h14v17H4V39z M25.649,49H33v7H22.539L25.649,49z   M33,43v4H20v-5h13.184C33.072,42.314,33,42.648,33,43z M4,59v-1h14v1c0,0.552-0.448,1-1,1H5C4.448,60,4,59.552,4,59z M19.829,60  c0.03-0.086,0.047-0.178,0.07-0.267c0.014-0.057,0.033-0.111,0.044-0.169C19.978,59.381,20,59.193,20,59v-1h13v1  c0,0.193,0.022,0.381,0.057,0.564c0.011,0.058,0.03,0.112,0.044,0.169c0.023,0.09,0.039,0.182,0.07,0.268H19.829z M35,59v-2V43  c0-0.552,0.448-1,1-1h1v18h-1C35.448,60,35,59.552,35,59z M39,42h17v18H39V42z M60,59c0,0.552-0.448,1-1,1h-1V42h1  c0.306,0,0.6,0.146,0.797,0.401C59.932,42.572,60,42.773,60,43V59z"/><path d="M27.115,17.471l-1.479,1.479l1.414,1.414l1.479-1.479C29.251,19.4,30.091,19.756,31,19.91V22h2v-2.09  c0.909-0.154,1.749-0.51,2.471-1.025l1.479,1.479l1.414-1.414l-1.479-1.479C37.4,16.749,37.756,15.909,37.91,15H40v-2h-2.09  c-0.154-0.909-0.51-1.749-1.025-2.471l1.479-1.479L36.95,7.636l-1.479,1.479C34.749,8.6,33.909,8.244,33,8.09V6h-2v2.09  c-0.909,0.154-1.749,0.51-2.471,1.025L27.05,7.636L25.636,9.05l1.479,1.479C26.6,11.251,26.244,12.091,26.09,13H24v2h2.09  C26.244,15.909,26.6,16.749,27.115,17.471z M32,10c2.206,0,4,1.794,4,4s-1.794,4-4,4s-4-1.794-4-4S29.794,10,32,10z"/><rect x="31" y="13" width="2" height="2"/><path d="M22.115,33.471l-1.479,1.479l1.414,1.414l1.479-1.479C24.251,35.4,25.091,35.756,26,35.91V38h2v-2.09  c0.909-0.154,1.749-0.51,2.471-1.025l1.479,1.479l1.414-1.414l-1.479-1.479C32.4,32.749,32.756,31.909,32.91,31H35v-2h-2.09  c-0.154-0.909-0.51-1.749-1.025-2.471l1.479-1.479l-1.414-1.414l-1.479,1.479C29.749,24.6,28.909,24.244,28,24.09V22h-2v2.09  c-0.909,0.154-1.749,0.51-2.471,1.025l-1.479-1.479l-1.414,1.414l1.479,1.479C21.6,27.251,21.244,28.091,21.09,29H19v2h2.09  C21.244,31.909,21.6,32.749,22.115,33.471z M27,26c2.206,0,4,1.794,4,4s-1.794,4-4,4s-4-1.794-4-4S24.794,26,27,26z"/><rect x="26" y="29" width="2" height="2"/><path d="M40.529,22.115l-1.479-1.479l-1.414,1.414l1.479,1.479C38.6,24.251,38.244,25.091,38.09,26H36v2h2.09  c0.154,0.909,0.51,1.749,1.025,2.471l-1.479,1.479l1.414,1.414l1.479-1.479C41.251,32.4,42.091,32.756,43,32.91V35h2v-2.09  c0.909-0.154,1.749-0.51,2.471-1.025l1.479,1.479l1.414-1.414l-1.479-1.479C49.4,29.749,49.756,28.909,49.91,28H52v-2h-2.09  c-0.154-0.909-0.51-1.749-1.025-2.471l1.479-1.479l-1.414-1.414l-1.479,1.479C46.749,21.6,45.909,21.244,45,21.09V19h-2v2.09  C42.091,21.244,41.251,21.6,40.529,22.115z M48,27c0,2.206-1.794,4-4,4s-4-1.794-4-4s1.794-4,4-4S48,24.794,48,27z"/><rect x="43" y="26" width="2" height="2"/><text x="0" y="79" fill="currentColor" font-size="5px" font-weight="bold" font-family="'Helvetica Neue', Helvetica, Arial-Unicode, Arial, Sans-serif">Created by Becris</text><text x="0" y="84" fill="currentColor" font-size="5px" font-weight="bold" font-family="'Helvetica Neue', Helvetica, Arial-Unicode, Arial, Sans-serif">from the Noun Project</text></svg>