<svg xmlns="http://www.w3.org/2000/svg" xmlns:xlink="http://www.w3.org/1999/xlink" version="1.1" x="0px" y="0px" viewBox="0 0 64 80" style="enable-background:new 0 0 64 64;" xml:space="preserve"><path d="M61,55h-3V23c0-2.757-2.243-5-5-5H33v-2h23c0.404,0,0.77-0.243,0.924-0.617c0.155-0.374,0.069-0.804-0.217-1.09l-8-8  c-0.086-0.086-0.187-0.147-0.293-0.196c-0.031-0.014-0.061-0.022-0.093-0.033c-0.084-0.029-0.17-0.046-0.259-0.052  C48.04,6.011,48.021,6,48,6H24V3c0-0.553-0.447-1-1-1h-8c-0.553,0-1,0.447-1,1v3h-2c-0.266,0-0.52,0.105-0.707,0.293l-8,8  c-0.286,0.286-0.372,0.716-0.217,1.09C3.23,15.757,3.596,16,4,16h10v2h-3c-2.757,0-5,2.243-5,5v32H3c-0.553,0-1,0.447-1,1v1  c0,2.757,2.243,5,5,5h50c2.757,0,5-2.243,5-5v-1C62,55.447,61.553,55,61,55z M31,18h-7v-2h7V18z M24,8.414L29.586,14H24V8.414z   M47,12.586L42.414,8H47V12.586z M45.586,14H41V9.414L45.586,14z M39,12.586L34.414,8H39V12.586z M37.586,14H33V9.414L37.586,14z   M31,12.586L26.414,8H31V12.586z M53.586,14H49V9.414L53.586,14z M6.414,14l6-6H14v6H6.414z M16,15V7V4h6v3v8v3h-6V15z M8,23  c0-1.654,1.346-3,3-3h20v2H11c-0.553,0-1,0.447-1,1v29c0,0.553,0.447,1,1,1h42c0.553,0,1-0.447,1-1V23c0-0.553-0.447-1-1-1H33v-2h20  c1.654,0,3,1.346,3,3v32H8V23z M28.293,29.707l1.97,1.97L22.787,35H15c-0.553,0-1,0.447-1,1v12c0,0.553,0.447,1,1,1h34  c0.553,0,1-0.447,1-1V36c0-0.553-0.447-1-1-1h-8.764l-6.548-3.274l2.019-2.019l-1.414-1.414L32,30.586L30.414,29l2.293-2.293  C32.895,26.52,33,26.266,33,26v-2h19v27H12V24h19v1.586l-2.707,2.707C27.902,28.684,27.902,29.316,28.293,29.707z M24.586,37  L21,40.586L17.414,37H24.586z M26,38.414v7.172L22.414,42L26,38.414z M16,38.414L19.586,42L16,45.586V38.414z M21,43.414L24.586,47  h-7.172L21,43.414z M28,37h20v10H28V37z M27.712,35l4.262-1.895L35.764,35H27.712z M57,60H7c-1.654,0-3-1.346-3-3h3h50h3  C60,58.654,58.654,60,57,60z"/><rect x="18" y="10" width="2" height="2"/><rect x="30" y="39" width="16" height="2"/><rect x="30" y="43" width="16" height="2"/><text x="0" y="79" fill="currentColor" font-size="5px" font-weight="bold" font-family="'Helvetica Neue', Helvetica, Arial-Unicode, Arial, Sans-serif">Created by Becris</text><text x="0" y="84" fill="currentColor" font-size="5px" font-weight="bold" font-family="'Helvetica Neue', Helvetica, Arial-Unicode, Arial, Sans-serif">from the Noun Project</text></svg>