<svg fill="currentColor" xmlns="http://www.w3.org/2000/svg" xmlns:xlink="http://www.w3.org/1999/xlink" version="1.1" x="0px" y="0px" viewBox="0 0 90.265 100" enable-background="new 0 0 90.265 100" xml:space="preserve"><g><path d="M89.894,18.948c-0.136-0.254-0.272-0.502-0.415-0.75c-0.788-1.402-1.638-2.772-2.562-4.087   c-0.905-1.296-1.885-2.537-2.933-3.715c-1.03-1.16-2.128-2.257-3.3-3.268c-1.159-1.004-2.388-1.929-3.684-2.747   c-1.29-0.825-2.654-1.544-4.068-2.146C71.495,1.621,70,1.13,68.474,0.771c-1.587-0.378-3.212-0.614-4.843-0.713   c-13.253-0.831-26.543,7.46-36.224,15.708C16.908,24.709,9.727,36.802,5.82,49.937c-2.45,8.268-3.411,16.614-3.374,25.223   c0.037,7.138,2.468,17.86-2.264,23.9c-0.292,0.235-0.198,0.558,0.025,0.731c0.006,0.013,0.006,0.019,0.012,0.031   c0.18,0.205,0.49,0.272,0.713-0.013c4.999-4.043,12.701-2.977,18.592-5.357c5.68-2.289,10.542-6.419,14.933-10.58   c7.51-7.107,14.673-14.282,22.58-20.986c8.254-6.995,16.602-14.016,23.733-22.183c4.912-5.644,10.047-12.813,9.445-20.67   C90.192,19.679,90.062,19.258,89.894,18.948z M77.925,42.278c-7.101,7.777-15.336,14.512-23.349,21.309   c-7.689,6.518-14.586,13.587-21.892,20.496c-5.327,5.042-11.43,9.252-18.629,11.02C9.77,96.151,5.9,95.779,2.235,97.695   c1.817-3.721,1.681-8.211,1.569-12.298c-0.186-7.498-0.521-14.921,0.31-22.4c1.619-14.537,7.777-28.756,17.321-39.801   C30.179,13.063,42.911,4.492,56.109,1.713c14.462-3.045,25.984,5.302,32.688,17.451c-0.911,0-1.811,0.043-2.691,0.118h-0.006   c-3.591-1.067-6.53-5.923-8.881-8.354c-3.975-4.1-8.726-6.915-14.338-8.068c-0.272-0.056-0.385,0.36-0.117,0.409   c6.89,1.42,11.925,5.389,16.521,10.512c1.655,1.842,3.491,4.465,5.897,5.594c-2.443,0.273-4.787,0.818-7.045,1.569   c-6.884-0.248-13.129-4.986-19.169-7.826c-5.612-2.636-11.517-3.901-17.532-1.941c-0.254,0.086-0.143,0.496,0.124,0.409   c7.964-2.599,15.231,0.75,22.233,4.428c4.198,2.202,8.558,4.8,13.333,5.29c-4.366,1.612-8.409,4.019-12.211,6.859   c-0.013,0.006-0.031,0.006-0.037,0.019c-12.087,5.761-26.834-6.518-39.647-3.144c-0.26,0.068-0.155,0.478,0.118,0.409   c12.26-3.231,26.332,7.95,38.208,3.74c-5.203,4.068-9.99,8.868-14.604,13.426c-0.143,0.143-0.298,0.297-0.452,0.434   c-7.132,3.026-14.711,0.917-22.134,0.049c-5.823-0.676-11.069,0.298-14.877,5.023c-0.167,0.217,0.13,0.521,0.31,0.31   c5.458-6.791,13.526-5.11,21.104-3.988c5.048,0.763,10.041,1.092,14.804-0.626c-5.799,5.6-12.019,10.753-17.663,16.508   c-3.299,3.361-6.356,6.946-9.352,10.58c-1.488,1.823-2.964,3.653-4.459,5.477c-2.313,2.84-4.322,6.003-6.319,9.041   c-0.843,1.266-1.594,2.587-2.22,3.976c-0.112,0.248,0.26,0.459,0.366,0.211c0.875-1.935,1.984-3.728,3.225-5.433   c2.629-3.615,5.637-6.958,8.472-10.431c3.15-3.833,6.332-7.635,9.705-11.269c1.377-1.476,2.797-2.89,4.248-4.279   c-2.009,3.504-2.592,7.454-3.262,11.572c-1.234,7.585-5.055,13.514-10.853,18.443c-0.205,0.18,0.093,0.478,0.31,0.304   c4.1-3.497,7.331-7.473,9.433-12.459c2.667-6.356,1.532-13.357,5.681-19.088c4.031-3.783,8.236-7.355,12.211-11.176   c2.747-2.648,5.494-5.426,8.347-8.155c-1.711,3.609-2.214,7.677-2.629,11.634c-0.639,6.084-0.161,13.935-4.354,18.897   c-0.167,0.211,0.13,0.508,0.31,0.304c2.909-3.448,3.387-8.174,3.846-12.496c0.694-6.363,0.533-13.495,3.752-19.219   c5.544-5.259,11.436-10.202,18.12-13.29c-2.313,7.919,1.508,16.583-3.454,23.845c-0.154,0.229,0.224,0.44,0.372,0.217   c5.067-7.417,1.055-16.229,3.591-24.279c4.304-1.922,8.942-3.063,14.04-3.033C89.714,28.783,83.333,36.349,77.925,42.278z"></path><path d="M18.769,66.854c4.527-2.406,15.405-7.771,14.475-14.244c-0.856-5.874-14.419-4.112-17.606-1.812   c-5.011,2.414-9.358,9.042-9.395,14.63C6.21,72.424,15.482,68.592,18.769,66.854z M7.463,63.729   c0.788-4.607,4.341-9.817,8.564-11.932c0.05-0.019,0.105-0.044,0.155-0.074c0.049-0.031,0.087-0.057,0.118-0.081   c3.182-2.115,15.95-3.573,15.95,1.997c0.006,2.921-3.907,5.662-5.928,7.219c-2.53,1.929-5.296,3.553-8.093,5.072   C14.527,67.934,6.229,71.022,7.463,63.729z"></path><path d="M49.479,52.176c-3.026-5.507-10.853,3.845-12.621,5.96c-0.025,0.024-0.043,0.062-0.062,0.087   c-2.623,3.256-4.713,9.339-2.747,13.383c2.542,5.203,8.062-1.854,9.693-4.155C46.179,63.996,51.978,56.722,49.479,52.176z    M43.426,66.036c-1.321,1.954-6.995,9.886-8.664,4.385c-1.123-3.702,0.49-8.651,2.847-11.535c1.575-1.892,9.346-11.014,11.25-5.501   C50.155,57.137,45.398,63.141,43.426,66.036z"></path><path d="M61.305,33.316c-1.29,2.071-2.096,4.484-2.523,6.884c-0.472,2.661-1.24,6.505,1.761,7.938   c2.319,1.116,4.502-0.85,5.829-2.586c1.595-2.09,2.698-4.614,3.361-7.157c0.515-1.972,1.023-4.558,0.05-6.474   C67.724,27.89,62.924,30.712,61.305,33.316z M59.898,46.315c-0.813-2.995,0.093-6.629,1.004-9.495   c0.869-2.704,4.912-8.974,7.957-4.359C71.532,36.51,64.35,50.998,59.898,46.315z"></path><path d="M39.035,39.419c2.524,0.105,14.233,0.359,14.09-4.068c-0.087-2.598-3.312-4.074-5.407-4.756   c-5.086-1.637-10.705,0.372-15.883-0.744c-3.07-0.614-6.27-1.296-8.726,1.066c-1.129,1.085-1.582,2.915-0.36,4.118   C26.508,38.761,34.024,39.214,39.035,39.419z M25.77,30.458c1.736-0.626,4.025,0.068,5.774,0.416   c5.798,1.253,12.136-1.11,17.681,1.445c1.594,0.732,3.82,2.934,1.563,4.304c-0.955,0.589-2.164,0.837-3.243,1.091   c-2.258,0.546-4.633,0.701-6.953,0.701c-3.591,0-7.212-0.552-10.71-1.346c-2.084-0.471-4.335-1.104-6.034-2.443   C21.888,33.075,24.245,31.01,25.77,30.458z"></path><path d="M44.226,20.926c3.25,1.464,6.593,2.698,9.954,3.864c4.037,1.408,12.26,3.119,14.406-2.053   c1.159-2.791-3.728-5.358-5.414-6.294c-4.409-2.468-10.319-1.774-15.157-2.369c-0.037-0.013-0.08-0.019-0.117-0.019   s-0.081,0-0.131-0.013c-1.743-0.074-12.856-0.855-10.251,2.896C38.899,18.923,42.136,19.983,44.226,20.926z M42.297,14.96   c1.86-0.087,3.739,0.118,5.601,0.149c0.006,0,0.006,0,0.012,0c3.653,0.478,7.355,0.465,10.996,1.061   c3.181,0.527,13.283,5.91,5.612,8.478c-4.168,1.401-8.372-0.267-12.255-1.662c-4.043-1.458-8.124-3.026-11.864-5.16   C37.125,15.965,39.5,15.078,42.297,14.96z"></path><path d="M72.078,17.515c1.525,0.589,4.837,1.693,6.475,0.731c1.277-0.731,0.62-2.121-0.063-3.051   c-1.525-2.053-3.863-3.597-6.009-4.912c-2.978-1.817-5.693-3.572-9.234-3.907c-1.005-0.13-3.026-0.446-3.535,0.813   c-0.465,1.147,0.807,2.394,1.507,3.12C64.121,13.311,68.189,16.014,72.078,17.515z M63.247,7.438c0.024,0,0.056,0.006,0.08,0.006   c2.599,0.273,4.577,1.358,6.778,2.691c2.09,1.271,4.155,2.468,6.01,4.099c0.527,0.459,3.119,2.797,1.594,3.182   c-1.762,0.44-4.335-0.472-5.941-1.172c-2.871-1.252-5.575-3.125-8.006-5.091c-1.042-0.837-2.134-1.755-2.847-2.896   C60.065,6.917,62.583,7.357,63.247,7.438z"></path></g></svg>